<svg width="281" height="103" viewBox="0 0 281 103" fill="none" xmlns="http://www.w3.org/2000/svg">
<rect x="0.25" y="0.25" width="280.5" height="102.5" rx="19.75" stroke="#36C3E2" stroke-width="0.5"/>
<path d="M39.2522 44.8545C39.7349 45.3168 40.2541 45.7543 40.7995 46.1539C42.6423 44.8225 44.144 43.0739 45.1816 41.051C46.2193 39.0281 46.7636 36.7884 46.7699 34.5149C46.7699 29.7549 44.422 25.5316 40.7907 22.876C40.2463 23.2775 39.7334 23.7111 39.2522 24.1768C40.9902 25.2866 42.4223 26.8143 43.4177 28.6202C44.413 30.4262 44.9398 32.4529 44.9499 34.5149C44.9499 38.8287 42.6924 42.6233 39.2522 44.8545Z" fill="#36C3E2"/>
<path d="M60.8488 25.3857C59.8615 27.5673 58.2654 29.4176 56.2524 30.7144C54.2393 32.0112 51.8947 32.6994 49.5 32.6964C47.1058 32.6976 44.762 32.0087 42.7492 30.7121C40.7365 29.4155 39.1401 27.5662 38.1513 25.3857C37.6788 25.9691 37.25 26.5962 36.8767 27.251C38.1585 29.4628 39.9998 31.2985 42.2155 32.5735C44.4313 33.8486 46.9436 34.5181 49.5 34.5149C52.0564 34.5195 54.5688 33.8507 56.7846 32.5757C59.0003 31.3008 60.8412 29.4648 62.1219 27.2524C61.7465 26.5982 61.3208 25.9741 60.8488 25.3857ZM46.77 48.7774C46.9509 40.8689 53.3223 34.5149 61.1492 34.5149C62.1496 34.5149 63.115 34.617 64.0615 34.8168C64.045 35.4546 63.9871 36.0885 63.888 36.7185C62.9037 36.4651 61.8914 36.3367 60.875 36.3364C59.2304 36.3491 57.6047 36.6889 56.0927 37.3361C54.5807 37.9833 53.2126 38.925 52.0682 40.1062C50.9254 41.2887 50.0293 42.6869 49.4322 44.2191C48.8351 45.7514 48.5488 47.3872 48.59 49.0312C47.9782 48.9887 47.37 48.9034 46.77 48.776" fill="#36C3E2"/>
<path d="M62.2138 35.3148C61.7865 41.8306 56.0975 47.2542 49.5 47.2542C49.0101 47.2549 48.5206 47.2247 48.0344 47.1638L47.8069 48.9838C49.7233 49.209 51.6654 49.0511 53.5202 48.5191C55.375 47.9871 57.1055 47.0917 58.6112 45.885C60.1169 44.6782 61.3677 43.1842 62.2908 41.4898C63.214 39.7953 63.7911 37.9343 63.9886 36.0148L62.2415 35.4154L62.2123 35.3061L62.2138 35.3148ZM61.8229 26.7413C60.1444 24.0604 57.638 21.9995 54.6834 20.8705C51.7287 19.7416 48.4867 19.6061 45.4481 20.4846C42.4096 21.3632 39.7401 23.2078 37.8437 25.7393C35.9474 28.2708 34.9275 31.3512 34.9386 34.5142C34.9369 36.658 35.4093 38.7756 36.322 40.7154C37.2347 42.6552 38.565 44.3692 40.2177 45.7346L41.7096 44.4877C40.1881 43.3037 38.9529 41.7921 38.0957 40.0652C37.2386 38.3383 36.7816 36.4405 36.7586 34.5127C36.7586 27.6513 42.6386 21.7727 49.5 21.7727C51.715 21.8051 53.8844 22.4063 55.8001 23.5188C57.7157 24.6312 59.3131 26.2175 60.439 28.1252L61.8229 26.7413Z" fill="#36C3E2"/>
<path d="M134.298 22.9628C133.526 23.4966 132.786 23.848 132.178 23.9253C132.512 24.5864 132.743 25.2946 132.863 26.0253C133.843 25.808 134.775 25.2903 135.541 24.7624C135.908 24.508 136.262 24.237 136.604 23.9501V27.208C136.604 27.426 136.67 27.639 136.792 27.8196C136.914 28.0002 137.087 28.1402 137.29 28.2216L137.298 28.2259C137.38 28.2594 137.461 28.2954 137.54 28.3338C137.711 28.4141 137.959 28.538 138.249 28.7043C138.962 29.1058 139.62 29.598 140.206 30.1684C140.867 30.8291 141.275 31.7186 141.504 32.4084C141.8 33.2922 142.553 34.1074 143.623 34.2868C143.699 34.2995 143.768 34.3387 143.818 34.3974C143.868 34.4561 143.895 34.5305 143.896 34.6076V37.1655C143.896 37.4061 143.721 37.6118 143.483 37.6511C142.573 37.8028 141.857 38.3978 141.453 39.1182C140.915 40.079 140.251 40.9629 139.477 41.7461C138.81 42.3939 138.026 42.9083 137.166 43.2613C136.8 43.4153 136.422 43.5392 136.037 43.6318L136.03 43.6347C135.781 43.6834 135.556 43.8171 135.395 44.0129C135.234 44.2087 135.146 44.4544 135.146 44.708V46.5309C135.146 46.7322 134.982 46.8955 134.781 46.8955H132.958C132.958 46.3153 132.728 45.759 132.318 45.3487C131.907 44.9385 131.351 44.708 130.771 44.708H127.854C127.274 44.708 126.718 44.9385 126.307 45.3487C125.897 45.759 125.667 46.3153 125.667 46.8955H123.844C123.747 46.8955 123.654 46.8571 123.586 46.7887C123.517 46.7204 123.479 46.6276 123.479 46.5309V43.2497C123.479 42.837 123.246 42.4593 122.878 42.2726L122.859 42.2624L122.757 42.2041C122.662 42.1472 122.518 42.0582 122.342 41.9299C121.989 41.6732 121.509 41.2751 121.029 40.7151C120.077 39.6053 119.104 37.8451 119.104 35.2288C119.104 33.7603 119.378 32.5747 119.846 31.6005C119.325 30.9095 118.931 30.1313 118.683 29.3022C118.537 29.5005 118.4 29.7061 118.271 29.9191C117.391 31.3759 116.917 33.1332 116.917 35.2274C116.917 38.4459 118.131 40.6961 119.367 42.1384C119.929 42.7957 120.576 43.3754 121.292 43.8622V46.5295C121.291 46.8647 121.357 47.1968 121.485 47.5066C121.614 47.8164 121.802 48.0979 122.039 48.335C122.276 48.5721 122.557 48.7603 122.867 48.8886C123.176 49.017 123.508 49.083 123.844 49.083H125.667C126.247 49.083 126.803 48.8525 127.213 48.4423C127.624 48.0321 127.854 47.4757 127.854 46.8955H130.771C130.771 47.4757 131.001 48.0321 131.411 48.4423C131.822 48.8525 132.378 49.083 132.958 49.083H134.781C135.458 49.083 136.107 48.8141 136.586 48.3355C137.064 47.8569 137.333 47.2078 137.333 46.5309V45.5349C137.562 45.4578 137.787 45.3727 138.01 45.2797C139.132 44.8166 140.155 44.1423 141.023 43.2934C141.938 42.3667 142.726 41.3215 143.363 40.1857C143.411 40.0915 143.478 40.0089 143.561 39.9439C143.644 39.8788 143.74 39.8329 143.843 39.8095C144.469 39.7047 145.037 39.3816 145.447 38.8976C145.857 38.4135 146.083 37.7999 146.083 37.1655V34.6091C146.083 33.3797 145.194 32.3311 143.983 32.1299C143.856 32.108 143.668 31.9811 143.579 31.7157C143.299 30.8743 142.755 29.6245 141.752 28.6211C141.028 27.9131 140.215 27.3023 139.334 26.8041C139.134 26.6903 138.953 26.5931 138.792 26.5124V22.3518C138.792 20.9838 137.144 20.4224 136.254 21.3076C135.773 21.7874 135.073 22.4261 134.298 22.9613M129.94 29.9016C130.654 29.6055 131.258 29.0426 131.401 28.2828C131.661 26.8672 131.388 25.4055 130.636 24.1784C129.884 22.9514 128.705 22.0456 127.325 21.635C125.946 21.2245 124.463 21.3381 123.163 21.9541C121.862 22.5701 120.834 23.645 120.278 24.9724C119.765 26.2093 119.693 27.5851 120.074 28.8688C120.456 30.1524 121.267 31.2658 122.372 32.022C123.011 32.458 123.835 32.4288 124.55 32.1328L129.94 29.9016ZM123.532 30.1641C122.811 29.6389 122.308 28.8683 122.117 27.9977C121.926 27.127 122.06 26.2165 122.495 25.4381C122.929 24.6596 123.633 24.0671 124.474 23.7722C125.316 23.4774 126.236 23.5008 127.061 23.8378C127.819 24.1515 128.45 24.7121 128.851 25.4288C129.251 26.1455 129.398 26.9764 129.267 27.787L129.237 27.8103C129.194 27.8382 129.149 27.8617 129.102 27.8803L123.712 30.1116C123.655 30.1363 123.594 30.1535 123.532 30.1626M135.875 31.583C135.875 31.9698 136.029 32.3407 136.302 32.6142C136.576 32.8877 136.946 33.0413 137.333 33.0413C137.72 33.0413 138.091 32.8877 138.364 32.6142C138.638 32.3407 138.792 31.9698 138.792 31.583C138.792 31.1962 138.638 30.8253 138.364 30.5518C138.091 30.2783 137.72 30.1247 137.333 30.1247C136.946 30.1247 136.576 30.2783 136.302 30.5518C136.029 30.8253 135.875 31.1962 135.875 31.583Z" fill="#36C3E2"/>
<path d="M203.363 33.8817C203.363 31.5017 203.958 29.2967 205.137 27.2783C206.315 25.26 207.913 23.6617 209.932 22.4833C211.95 21.305 214.143 20.7217 216.512 20.7217C218.285 20.7217 219.988 21.0717 221.61 21.76C223.232 22.4483 224.62 23.3933 225.798 24.56C226.977 25.7267 227.91 27.1267 228.598 28.76C229.287 30.3933 229.637 32.085 229.637 33.8817C229.637 35.655 229.287 37.3583 228.598 38.98C227.91 40.6017 226.965 42.0017 225.798 43.1683C224.632 44.335 223.232 45.2683 221.61 45.9567C219.988 46.645 218.297 46.995 216.512 46.995C214.727 46.995 213.012 46.645 211.39 45.9567C209.768 45.2683 208.368 44.3233 207.19 43.1567C206.012 41.99 205.09 40.59 204.39 38.98C203.69 37.37 203.363 35.6667 203.363 33.8817ZM206.257 33.8817C206.257 36.6467 207.26 39.05 209.278 41.0917C211.297 43.11 213.7 44.1133 216.512 44.1133C218.355 44.1133 220.07 43.6583 221.633 42.7367C223.197 41.815 224.457 40.5783 225.378 39.0033C226.3 37.4283 226.767 35.725 226.767 33.8817C226.767 32.0383 226.3 30.3233 225.378 28.7483C224.457 27.1733 223.208 25.925 221.633 25.0033C220.058 24.0817 218.355 23.6267 216.512 23.6267C214.668 23.6267 212.953 24.0817 211.39 25.0033C209.827 25.925 208.567 27.1733 207.633 28.7483C206.7 30.3233 206.257 32.0383 206.257 33.8817ZM210.83 31.4783C210.791 31.3571 210.778 31.2288 210.792 31.1021C210.806 30.9753 210.847 30.853 210.912 30.7433C211.04 30.51 211.238 30.3583 211.507 30.2767C211.775 30.195 212.02 30.23 212.253 30.3583L215.497 32.19V26.1117C215.497 25.8433 215.59 25.61 215.777 25.4233C215.963 25.2367 216.197 25.1433 216.465 25.1433C216.733 25.1433 216.967 25.2367 217.153 25.4233C217.34 25.61 217.433 25.8433 217.433 26.1117V33.8933C217.433 34.1617 217.34 34.395 217.153 34.5817C216.967 34.7683 216.733 34.8617 216.465 34.8617C216.222 34.8644 215.988 34.7723 215.812 34.605L211.285 32.0733C211.065 31.9377 210.903 31.7259 210.83 31.4783Z" fill="#36C3E2"/>
<path d="M37.2114 71V60.8182H43.5949V62.1406H38.7476V65.2429H43.2618V66.5604H38.7476V69.6776H43.6546V71H37.2114ZM48.7442 71.1541C48.0051 71.1541 47.3688 70.9867 46.8351 70.652C46.3048 70.3139 45.8972 69.8482 45.6121 69.255C45.3271 68.6617 45.1846 67.9822 45.1846 67.2166C45.1846 66.4411 45.3304 65.7566 45.6221 65.1634C45.9137 64.5668 46.3247 64.1011 46.855 63.7663C47.3853 63.4316 48.0101 63.2642 48.7293 63.2642C49.3093 63.2642 49.8264 63.3719 50.2805 63.5874C50.7345 63.7995 51.1008 64.0978 51.3792 64.4822C51.6609 64.8667 51.8283 65.3158 51.8813 65.8295H50.4346C50.355 65.4716 50.1727 65.1634 49.8877 64.9048C49.606 64.6463 49.2281 64.517 48.7542 64.517C48.3399 64.517 47.9769 64.6264 47.6654 64.8452C47.3572 65.0606 47.1169 65.3688 46.9445 65.7699C46.7722 66.1676 46.686 66.6383 46.686 67.1818C46.686 67.7386 46.7705 68.2192 46.9395 68.6236C47.1086 69.0279 47.3472 69.3411 47.6555 69.5632C47.967 69.7853 48.3332 69.8963 48.7542 69.8963C49.0359 69.8963 49.2911 69.8449 49.5198 69.7422C49.7518 69.6361 49.9457 69.4853 50.1015 69.2898C50.2606 69.0942 50.3716 68.8589 50.4346 68.5838H51.8813C51.8283 69.0777 51.6675 69.5185 51.3991 69.9062C51.1306 70.294 50.771 70.599 50.3202 70.821C49.8728 71.0431 49.3474 71.1541 48.7442 71.1541ZM56.6876 71.1541C55.9717 71.1541 55.3469 70.9901 54.8133 70.6619C54.2797 70.3338 53.8654 69.8748 53.5704 69.2848C53.2754 68.6948 53.1279 68.0054 53.1279 67.2166C53.1279 66.4245 53.2754 65.7318 53.5704 65.1385C53.8654 64.5452 54.2797 64.0845 54.8133 63.7564C55.3469 63.4283 55.9717 63.2642 56.6876 63.2642C57.4035 63.2642 58.0283 63.4283 58.5619 63.7564C59.0955 64.0845 59.5098 64.5452 59.8048 65.1385C60.0998 65.7318 60.2472 66.4245 60.2472 67.2166C60.2472 68.0054 60.0998 68.6948 59.8048 69.2848C59.5098 69.8748 59.0955 70.3338 58.5619 70.6619C58.0283 70.9901 57.4035 71.1541 56.6876 71.1541ZM56.6926 69.9062C57.1566 69.9062 57.541 69.7836 57.846 69.5384C58.1509 69.2931 58.3763 68.9666 58.5221 68.5589C58.6713 68.1513 58.7458 67.7022 58.7458 67.2116C58.7458 66.7244 58.6713 66.277 58.5221 65.8693C58.3763 65.4583 58.1509 65.1286 57.846 64.88C57.541 64.6314 57.1566 64.5071 56.6926 64.5071C56.2252 64.5071 55.8374 64.6314 55.5292 64.88C55.2243 65.1286 54.9972 65.4583 54.8481 65.8693C54.7023 66.277 54.6294 66.7244 54.6294 67.2116C54.6294 67.7022 54.7023 68.1513 54.8481 68.5589C54.9972 68.9666 55.2243 69.2931 55.5292 69.5384C55.8374 69.7836 56.2252 69.9062 56.6926 69.9062ZM22.7534 88V77.8182H29.0673V79.1406H24.2896V82.2429H28.6149V83.5604H24.2896V88H22.7534ZM30.7415 88V80.3636H32.1783V81.5767H32.2578C32.397 81.1657 32.6423 80.8426 32.9936 80.6072C33.3482 80.3686 33.7493 80.2493 34.1967 80.2493C34.2895 80.2493 34.3989 80.2526 34.5249 80.2592C34.6541 80.2659 34.7552 80.2741 34.8281 80.2841V81.706C34.7685 81.6894 34.6624 81.6712 34.5099 81.6513C34.3575 81.6281 34.205 81.6165 34.0526 81.6165C33.7012 81.6165 33.388 81.6911 33.1129 81.8402C32.8411 81.986 32.6257 82.1899 32.4666 82.4517C32.3075 82.7102 32.228 83.0052 32.228 83.3366V88H30.7415ZM36.1145 88V80.3636H37.601V88H36.1145ZM36.8652 79.1854C36.6067 79.1854 36.3846 79.0992 36.199 78.9268C36.0167 78.7512 35.9256 78.5424 35.9256 78.3004C35.9256 78.0552 36.0167 77.8464 36.199 77.674C36.3846 77.4983 36.6067 77.4105 36.8652 77.4105C37.1238 77.4105 37.3442 77.4983 37.5265 77.674C37.7121 77.8464 37.8049 78.0552 37.8049 78.3004C37.8049 78.5424 37.7121 78.7512 37.5265 78.9268C37.3442 79.0992 37.1238 79.1854 36.8652 79.1854ZM42.892 88.1541C42.1397 88.1541 41.4917 87.9934 40.9482 87.6719C40.4079 87.3471 39.9903 86.8913 39.6953 86.3047C39.4036 85.7147 39.2578 85.0237 39.2578 84.2315C39.2578 83.4493 39.4036 82.7599 39.6953 82.1634C39.9903 81.5668 40.4013 81.1011 40.9283 80.7663C41.4586 80.4316 42.0784 80.2642 42.7876 80.2642C43.2185 80.2642 43.6361 80.3355 44.0405 80.478C44.4448 80.6205 44.8078 80.8442 45.1293 81.1491C45.4508 81.4541 45.7043 81.8501 45.8899 82.3374C46.0755 82.8213 46.1683 83.4096 46.1683 84.1023V84.6293H40.098V83.5156H44.7116C44.7116 83.1245 44.6321 82.7782 44.473 82.4766C44.3139 82.1716 44.0902 81.9313 43.8018 81.7557C43.5168 81.58 43.1821 81.4922 42.7976 81.4922C42.38 81.4922 42.0154 81.5949 41.7038 81.8004C41.3956 82.0026 41.157 82.2678 40.9879 82.5959C40.8222 82.9207 40.7393 83.2737 40.7393 83.6548V84.5249C40.7393 85.0353 40.8288 85.4695 41.0078 85.8274C41.1901 86.1854 41.4437 86.4588 41.7685 86.6477C42.0933 86.8333 42.4728 86.9261 42.907 86.9261C43.1887 86.9261 43.4455 86.8864 43.6776 86.8068C43.9096 86.724 44.1101 86.6013 44.2791 86.4389C44.4482 86.2765 44.5774 86.076 44.6669 85.8374L46.0739 86.0909C45.9612 86.5052 45.759 86.8681 45.4673 87.1797C45.179 87.4879 44.8161 87.7282 44.3786 87.9006C43.9444 88.0696 43.4489 88.1541 42.892 88.1541ZM49.3042 83.4659V88H47.8176V80.3636H49.2445V81.6065H49.339C49.5146 81.2022 49.7897 80.8774 50.1642 80.6321C50.5421 80.3868 51.0177 80.2642 51.5911 80.2642C52.1114 80.2642 52.5672 80.3736 52.9583 80.5923C53.3494 80.8078 53.6526 81.1293 53.8681 81.5568C54.0835 81.9844 54.1912 82.513 54.1912 83.1428V88H52.7047V83.3217C52.7047 82.7682 52.5605 82.3357 52.2722 82.0241C51.9838 81.7093 51.5878 81.5518 51.084 81.5518C50.7393 81.5518 50.4327 81.6264 50.1642 81.7756C49.8991 81.9247 49.6886 82.1435 49.5328 82.4318C49.3804 82.7169 49.3042 83.0616 49.3042 83.4659ZM59.0435 88.1491C58.427 88.1491 57.8768 87.9917 57.3929 87.6768C56.9123 87.3587 56.5345 86.9062 56.2594 86.3196C55.9876 85.7296 55.8517 85.022 55.8517 84.1967C55.8517 83.3714 55.9893 82.6655 56.2644 82.0788C56.5428 81.4922 56.9239 81.0431 57.4078 80.7315C57.8917 80.42 58.4403 80.2642 59.0534 80.2642C59.5274 80.2642 59.9086 80.3438 60.1969 80.5028C60.4886 80.6586 60.714 80.8409 60.873 81.0497C61.0355 81.2585 61.1614 81.4425 61.2509 81.6016H61.3404V77.8182H62.8269V88H61.3752V86.8118H61.2509C61.1614 86.9742 61.0321 87.1598 60.8631 87.3686C60.6974 87.5774 60.4687 87.7597 60.177 87.9155C59.8854 88.0713 59.5075 88.1491 59.0435 88.1491ZM59.3716 86.8814C59.7992 86.8814 60.1605 86.7687 60.4554 86.5433C60.7537 86.3146 60.9791 85.9981 61.1316 85.5938C61.2873 85.1894 61.3652 84.7187 61.3652 84.1818C61.3652 83.6515 61.289 83.1875 61.1365 82.7898C60.9841 82.392 60.7604 82.0821 60.4654 81.8601C60.1704 81.638 59.8058 81.527 59.3716 81.527C58.9242 81.527 58.5513 81.643 58.253 81.875C57.9547 82.107 57.7293 82.4235 57.5769 82.8246C57.4277 83.2256 57.3532 83.678 57.3532 84.1818C57.3532 84.6922 57.4294 85.1513 57.5819 85.5589C57.7343 85.9666 57.9597 86.2898 58.258 86.5284C58.5596 86.7637 58.9308 86.8814 59.3716 86.8814ZM66.435 77.8182V88H64.9485V77.8182H66.435ZM69.3745 90.8636C69.1524 90.8636 68.9502 90.8454 68.7679 90.8089C68.5856 90.7758 68.4498 90.7393 68.3603 90.6996L68.7182 89.4815C68.99 89.5545 69.2319 89.5859 69.4441 89.576C69.6562 89.5661 69.8435 89.4865 70.0059 89.3374C70.1716 89.1882 70.3174 88.9446 70.4434 88.6065L70.6273 88.0994L67.8333 80.3636H69.4242L71.3581 86.2898H71.4377L73.3716 80.3636H74.9675L71.8205 89.0192C71.6747 89.4169 71.4891 89.7533 71.2637 90.0284C71.0383 90.3068 70.7698 90.5156 70.4583 90.6548C70.1467 90.794 69.7855 90.8636 69.3745 90.8636Z" fill="black"/>
<path d="M110.971 60.8182H112.835L116.077 68.733H116.196L119.438 60.8182H121.302V71H119.84V63.6321H119.746L116.743 70.9851H115.53L112.527 63.6271H112.433V71H110.971V60.8182ZM126.633 71.1541C125.917 71.1541 125.292 70.9901 124.759 70.6619C124.225 70.3338 123.811 69.8748 123.516 69.2848C123.221 68.6948 123.073 68.0054 123.073 67.2166C123.073 66.4245 123.221 65.7318 123.516 65.1385C123.811 64.5452 124.225 64.0845 124.759 63.7564C125.292 63.4283 125.917 63.2642 126.633 63.2642C127.349 63.2642 127.974 63.4283 128.507 63.7564C129.041 64.0845 129.455 64.5452 129.75 65.1385C130.045 65.7318 130.193 66.4245 130.193 67.2166C130.193 68.0054 130.045 68.6948 129.75 69.2848C129.455 69.8748 129.041 70.3338 128.507 70.6619C127.974 70.9901 127.349 71.1541 126.633 71.1541ZM126.638 69.9062C127.102 69.9062 127.486 69.7836 127.791 69.5384C128.096 69.2931 128.322 68.9666 128.467 68.5589C128.617 68.1513 128.691 67.7022 128.691 67.2116C128.691 66.7244 128.617 66.277 128.467 65.8693C128.322 65.4583 128.096 65.1286 127.791 64.88C127.486 64.6314 127.102 64.5071 126.638 64.5071C126.171 64.5071 125.783 64.6314 125.475 64.88C125.17 65.1286 124.943 65.4583 124.793 65.8693C124.648 66.277 124.575 66.7244 124.575 67.2116C124.575 67.7022 124.648 68.1513 124.793 68.5589C124.943 68.9666 125.17 69.2931 125.475 69.5384C125.783 69.7836 126.171 69.9062 126.638 69.9062ZM133.338 66.4659V71H131.852V63.3636H133.279V64.6065H133.373C133.549 64.2022 133.824 63.8774 134.198 63.6321C134.576 63.3868 135.052 63.2642 135.625 63.2642C136.146 63.2642 136.601 63.3736 136.992 63.5923C137.384 63.8078 137.687 64.1293 137.902 64.5568C138.118 64.9844 138.225 65.513 138.225 66.1428V71H136.739V66.3217C136.739 65.7682 136.595 65.3357 136.306 65.0241C136.018 64.7093 135.622 64.5518 135.118 64.5518C134.773 64.5518 134.467 64.6264 134.198 64.7756C133.933 64.9247 133.723 65.1435 133.567 65.4318C133.415 65.7169 133.338 66.0616 133.338 66.4659ZM143.51 71.1541C142.758 71.1541 142.11 70.9934 141.566 70.6719C141.026 70.3471 140.608 69.8913 140.313 69.3047C140.022 68.7147 139.876 68.0237 139.876 67.2315C139.876 66.4493 140.022 65.7599 140.313 65.1634C140.608 64.5668 141.019 64.1011 141.546 63.7663C142.077 63.4316 142.697 63.2642 143.406 63.2642C143.837 63.2642 144.254 63.3355 144.659 63.478C145.063 63.6205 145.426 63.8442 145.747 64.1491C146.069 64.4541 146.322 64.8501 146.508 65.3374C146.694 65.8213 146.786 66.4096 146.786 67.1023V67.6293H140.716V66.5156H145.33C145.33 66.1245 145.25 65.7782 145.091 65.4766C144.932 65.1716 144.708 64.9313 144.42 64.7557C144.135 64.58 143.8 64.4922 143.416 64.4922C142.998 64.4922 142.634 64.5949 142.322 64.8004C142.014 65.0026 141.775 65.2678 141.606 65.5959C141.44 65.9207 141.358 66.2737 141.358 66.6548V67.5249C141.358 68.0353 141.447 68.4695 141.626 68.8274C141.808 69.1854 142.062 69.4588 142.387 69.6477C142.711 69.8333 143.091 69.9261 143.525 69.9261C143.807 69.9261 144.064 69.8864 144.296 69.8068C144.528 69.724 144.728 69.6013 144.897 69.4389C145.066 69.2765 145.196 69.076 145.285 68.8374L146.692 69.0909C146.579 69.5052 146.377 69.8681 146.085 70.1797C145.797 70.4879 145.434 70.7282 144.997 70.9006C144.563 71.0696 144.067 71.1541 143.51 71.1541ZM149.157 73.8636C148.935 73.8636 148.732 73.8454 148.55 73.8089C148.368 73.7758 148.232 73.7393 148.142 73.6996L148.5 72.4815C148.772 72.5545 149.014 72.5859 149.226 72.576C149.438 72.5661 149.626 72.4865 149.788 72.3374C149.954 72.1882 150.1 71.9446 150.226 71.6065L150.41 71.0994L147.616 63.3636H149.206L151.14 69.2898H151.22L153.154 63.3636H154.75L151.603 72.0192C151.457 72.4169 151.271 72.7533 151.046 73.0284C150.821 73.3068 150.552 73.5156 150.241 73.6548C149.929 73.794 149.568 73.8636 149.157 73.8636ZM116.606 80.4929C116.553 80.0223 116.335 79.6577 115.95 79.3991C115.566 79.1373 115.082 79.0064 114.498 79.0064C114.081 79.0064 113.72 79.0727 113.415 79.2053C113.11 79.3345 112.873 79.5135 112.704 79.7422C112.538 79.9676 112.455 80.2244 112.455 80.5128C112.455 80.7547 112.512 80.9635 112.624 81.1392C112.74 81.3149 112.891 81.4624 113.077 81.5817C113.266 81.6977 113.468 81.7955 113.683 81.875C113.899 81.9512 114.106 82.0142 114.305 82.0639L115.299 82.3224C115.624 82.402 115.957 82.5097 116.298 82.6456C116.64 82.7815 116.956 82.9605 117.248 83.1825C117.539 83.4046 117.775 83.6797 117.954 84.0078C118.136 84.3359 118.227 84.7287 118.227 85.1861C118.227 85.7628 118.078 86.2749 117.78 86.7223C117.485 87.1697 117.056 87.5227 116.492 87.7812C115.932 88.0398 115.254 88.169 114.459 88.169C113.696 88.169 113.037 88.0481 112.48 87.8061C111.923 87.5642 111.487 87.2211 111.172 86.777C110.858 86.3295 110.684 85.7992 110.65 85.1861H112.192C112.222 85.554 112.341 85.8606 112.55 86.1058C112.762 86.3478 113.032 86.5284 113.36 86.6477C113.691 86.7637 114.054 86.8217 114.449 86.8217C114.883 86.8217 115.269 86.7538 115.607 86.6179C115.949 86.4787 116.217 86.2865 116.413 86.0412C116.608 85.7926 116.706 85.5026 116.706 85.1712C116.706 84.8696 116.62 84.6226 116.447 84.4304C116.278 84.2382 116.048 84.0791 115.756 83.9531C115.468 83.8272 115.141 83.7161 114.777 83.62L113.574 83.2919C112.758 83.0698 112.112 82.7434 111.635 82.3125C111.161 81.8816 110.924 81.3116 110.924 80.6023C110.924 80.0156 111.083 79.5036 111.401 79.0661C111.719 78.6286 112.15 78.2888 112.694 78.0469C113.237 77.8016 113.851 77.679 114.533 77.679C115.223 77.679 115.831 77.8 116.358 78.0419C116.888 78.2839 117.306 78.617 117.611 79.0412C117.916 79.4621 118.075 79.946 118.088 80.4929H116.606ZM122.166 88.169C121.682 88.169 121.245 88.0795 120.853 87.9006C120.462 87.7183 120.152 87.4548 119.924 87.1101C119.698 86.7654 119.586 86.3428 119.586 85.8423C119.586 85.4115 119.669 85.0568 119.834 84.7784C120 84.5 120.224 84.2796 120.505 84.1172C120.787 83.9548 121.102 83.8321 121.45 83.7493C121.798 83.6664 122.153 83.6035 122.514 83.5604C122.971 83.5073 123.343 83.4643 123.628 83.4311C123.913 83.3946 124.12 83.3366 124.249 83.2571C124.378 83.1776 124.443 83.0483 124.443 82.8693V82.8345C124.443 82.4003 124.32 82.0639 124.075 81.8253C123.833 81.5866 123.472 81.4673 122.991 81.4673C122.491 81.4673 122.096 81.5784 121.808 81.8004C121.523 82.0192 121.326 82.2628 121.216 82.5312L119.819 82.2131C119.985 81.7491 120.227 81.3745 120.545 81.0895C120.867 80.8011 121.236 80.5923 121.654 80.4631C122.071 80.3305 122.511 80.2642 122.971 80.2642C123.276 80.2642 123.599 80.3007 123.941 80.3736C124.285 80.4432 124.607 80.5724 124.905 80.7614C125.207 80.9503 125.454 81.2204 125.646 81.5717C125.838 81.9197 125.934 82.3722 125.934 82.929V88H124.483V86.956H124.423C124.327 87.1482 124.183 87.3371 123.991 87.5227C123.798 87.7083 123.551 87.8625 123.25 87.9851C122.948 88.1077 122.587 88.169 122.166 88.169ZM122.489 86.9759C122.9 86.9759 123.251 86.8946 123.543 86.7322C123.838 86.5698 124.062 86.3577 124.214 86.0959C124.37 85.8307 124.448 85.5473 124.448 85.2457V84.2614C124.395 84.3144 124.292 84.3641 124.14 84.4105C123.991 84.4536 123.82 84.4917 123.628 84.5249C123.435 84.5547 123.248 84.5829 123.066 84.6094C122.883 84.6326 122.731 84.6525 122.608 84.669C122.32 84.7055 122.057 84.7668 121.818 84.853C121.583 84.9392 121.394 85.0634 121.251 85.2259C121.112 85.3849 121.042 85.5971 121.042 85.8622C121.042 86.2301 121.178 86.5085 121.45 86.6974C121.722 86.883 122.068 86.9759 122.489 86.9759ZM134.174 80.3636L131.404 88H129.813L127.039 80.3636H128.635L130.569 86.2401H130.649L132.578 80.3636H134.174ZM135.571 88V80.3636H137.057V88H135.571ZM136.321 79.1854C136.063 79.1854 135.841 79.0992 135.655 78.9268C135.473 78.7512 135.382 78.5424 135.382 78.3004C135.382 78.0552 135.473 77.8464 135.655 77.674C135.841 77.4983 136.063 77.4105 136.321 77.4105C136.58 77.4105 136.8 77.4983 136.983 77.674C137.168 77.8464 137.261 78.0552 137.261 78.3004C137.261 78.5424 137.168 78.7512 136.983 78.9268C136.8 79.0992 136.58 79.1854 136.321 79.1854ZM140.543 83.4659V88H139.057V80.3636H140.484V81.6065H140.578C140.754 81.2022 141.029 80.8774 141.403 80.6321C141.781 80.3868 142.257 80.2642 142.83 80.2642C143.351 80.2642 143.806 80.3736 144.198 80.5923C144.589 80.8078 144.892 81.1293 145.107 81.5568C145.323 81.9844 145.43 82.513 145.43 83.1428V88H143.944V83.3217C143.944 82.7682 143.8 82.3357 143.511 82.0241C143.223 81.7093 142.827 81.5518 142.323 81.5518C141.979 81.5518 141.672 81.6264 141.403 81.7756C141.138 81.9247 140.928 82.1435 140.772 82.4318C140.62 82.7169 140.543 83.0616 140.543 83.4659ZM150.626 91.0227C150.019 91.0227 149.497 90.9432 149.06 90.7841C148.626 90.625 148.271 90.4145 147.996 90.1527C147.721 89.8909 147.515 89.6042 147.379 89.2926L148.657 88.7656C148.747 88.9115 148.866 89.0656 149.015 89.228C149.167 89.3937 149.373 89.5346 149.631 89.6506C149.893 89.7666 150.23 89.8246 150.641 89.8246C151.204 89.8246 151.67 89.687 152.038 89.4119C152.406 89.1402 152.59 88.706 152.59 88.1094V86.608H152.495C152.406 86.7704 152.276 86.951 152.107 87.1499C151.942 87.3487 151.713 87.5211 151.421 87.6669C151.13 87.8127 150.75 87.8857 150.283 87.8857C149.68 87.8857 149.136 87.7448 148.652 87.4631C148.171 87.178 147.79 86.7588 147.509 86.2053C147.23 85.6484 147.091 84.964 147.091 84.152C147.091 83.34 147.229 82.6439 147.504 82.0639C147.782 81.4839 148.163 81.0398 148.647 80.7315C149.131 80.42 149.68 80.2642 150.293 80.2642C150.767 80.2642 151.149 80.3438 151.441 80.5028C151.733 80.6586 151.96 80.8409 152.122 81.0497C152.288 81.2585 152.416 81.4425 152.505 81.6016H152.614V80.3636H154.071V88.169C154.071 88.8253 153.919 89.3639 153.614 89.7848C153.309 90.2057 152.896 90.5173 152.376 90.7195C151.859 90.9216 151.275 91.0227 150.626 91.0227ZM150.611 86.6527C151.038 86.6527 151.4 86.5533 151.695 86.3544C151.993 86.1522 152.218 85.8639 152.371 85.4893C152.527 85.1115 152.604 84.6591 152.604 84.1321C152.604 83.6184 152.528 83.166 152.376 82.7749C152.223 82.3838 152 82.0788 151.705 81.8601C151.41 81.638 151.045 81.527 150.611 81.527C150.163 81.527 149.791 81.643 149.492 81.875C149.194 82.1037 148.969 82.4152 148.816 82.8097C148.667 83.2041 148.592 83.6449 148.592 84.1321C148.592 84.6326 148.669 85.0717 148.821 85.4496C148.974 85.8274 149.199 86.1224 149.497 86.3345C149.799 86.5466 150.17 86.6527 150.611 86.6527Z" fill="black"/>
<path d="M200.519 62.1406V60.8182H208.399V62.1406H205.222V71H203.691V62.1406H200.519ZM210.021 71V63.3636H211.507V71H210.021ZM210.771 62.1854C210.513 62.1854 210.291 62.0992 210.105 61.9268C209.923 61.7512 209.832 61.5424 209.832 61.3004C209.832 61.0552 209.923 60.8464 210.105 60.674C210.291 60.4983 210.513 60.4105 210.771 60.4105C211.03 60.4105 211.25 60.4983 211.433 60.674C211.618 60.8464 211.711 61.0552 211.711 61.3004C211.711 61.5424 211.618 61.7512 211.433 61.9268C211.25 62.0992 211.03 62.1854 210.771 62.1854ZM213.507 71V63.3636H214.934V64.6065H215.028C215.188 64.1856 215.448 63.8575 215.809 63.6222C216.17 63.3835 216.603 63.2642 217.107 63.2642C217.617 63.2642 218.045 63.3835 218.389 63.6222C218.737 63.8608 218.994 64.1889 219.16 64.6065H219.239C219.422 64.1989 219.712 63.8741 220.109 63.6321C220.507 63.3868 220.981 63.2642 221.531 63.2642C222.224 63.2642 222.789 63.4813 223.227 63.9155C223.667 64.3497 223.888 65.0043 223.888 65.8793V71H222.401V66.0185C222.401 65.5014 222.26 65.1269 221.979 64.8949C221.697 64.6629 221.361 64.5469 220.969 64.5469C220.486 64.5469 220.109 64.696 219.841 64.9943C219.572 65.2893 219.438 65.6688 219.438 66.1328V71H217.957V65.924C217.957 65.5097 217.827 65.1766 217.569 64.9247C217.31 64.6728 216.974 64.5469 216.56 64.5469C216.278 64.5469 216.018 64.6214 215.779 64.7706C215.544 64.9164 215.353 65.1203 215.207 65.3821C215.065 65.6439 214.994 65.9472 214.994 66.2919V71H213.507ZM229.171 71.1541C228.419 71.1541 227.771 70.9934 227.227 70.6719C226.687 70.3471 226.27 69.8913 225.975 69.3047C225.683 68.7147 225.537 68.0237 225.537 67.2315C225.537 66.4493 225.683 65.7599 225.975 65.1634C226.27 64.5668 226.681 64.1011 227.208 63.7663C227.738 63.4316 228.358 63.2642 229.067 63.2642C229.498 63.2642 229.915 63.3355 230.32 63.478C230.724 63.6205 231.087 63.8442 231.409 64.1491C231.73 64.4541 231.984 64.8501 232.169 65.3374C232.355 65.8213 232.448 66.4096 232.448 67.1023V67.6293H226.377V66.5156H230.991C230.991 66.1245 230.911 65.7782 230.752 65.4766C230.593 65.1716 230.369 64.9313 230.081 64.7557C229.796 64.58 229.461 64.4922 229.077 64.4922C228.659 64.4922 228.295 64.5949 227.983 64.8004C227.675 65.0026 227.436 65.2678 227.267 65.5959C227.102 65.9207 227.019 66.2737 227.019 66.6548V67.5249C227.019 68.0353 227.108 68.4695 227.287 68.8274C227.469 69.1854 227.723 69.4588 228.048 69.6477C228.373 69.8333 228.752 69.9261 229.186 69.9261C229.468 69.9261 229.725 69.8864 229.957 69.8068C230.189 69.724 230.389 69.6013 230.558 69.4389C230.727 69.2765 230.857 69.076 230.946 68.8374L232.353 69.0909C232.24 69.5052 232.038 69.8681 231.747 70.1797C231.458 70.4879 231.095 70.7282 230.658 70.9006C230.224 71.0696 229.728 71.1541 229.171 71.1541ZM200.606 80.4929C200.553 80.0223 200.335 79.6577 199.95 79.3991C199.566 79.1373 199.082 79.0064 198.498 79.0064C198.081 79.0064 197.72 79.0727 197.415 79.2053C197.11 79.3345 196.873 79.5135 196.704 79.7422C196.538 79.9676 196.455 80.2244 196.455 80.5128C196.455 80.7547 196.512 80.9635 196.624 81.1392C196.74 81.3149 196.891 81.4624 197.077 81.5817C197.266 81.6977 197.468 81.7955 197.683 81.875C197.899 81.9512 198.106 82.0142 198.305 82.0639L199.299 82.3224C199.624 82.402 199.957 82.5097 200.298 82.6456C200.64 82.7815 200.956 82.9605 201.248 83.1825C201.539 83.4046 201.775 83.6797 201.954 84.0078C202.136 84.3359 202.227 84.7287 202.227 85.1861C202.227 85.7628 202.078 86.2749 201.78 86.7223C201.485 87.1697 201.056 87.5227 200.492 87.7812C199.932 88.0398 199.254 88.169 198.459 88.169C197.696 88.169 197.037 88.0481 196.48 87.8061C195.923 87.5642 195.487 87.2211 195.172 86.777C194.858 86.3295 194.684 85.7992 194.65 85.1861H196.192C196.222 85.554 196.341 85.8606 196.55 86.1058C196.762 86.3478 197.032 86.5284 197.36 86.6477C197.691 86.7637 198.054 86.8217 198.449 86.8217C198.883 86.8217 199.269 86.7538 199.607 86.6179C199.949 86.4787 200.217 86.2865 200.413 86.0412C200.608 85.7926 200.706 85.5026 200.706 85.1712C200.706 84.8696 200.62 84.6226 200.447 84.4304C200.278 84.2382 200.048 84.0791 199.756 83.9531C199.468 83.8272 199.141 83.7161 198.777 83.62L197.574 83.2919C196.758 83.0698 196.112 82.7434 195.635 82.3125C195.161 81.8816 194.924 81.3116 194.924 80.6023C194.924 80.0156 195.083 79.5036 195.401 79.0661C195.719 78.6286 196.15 78.2888 196.694 78.0469C197.237 77.8016 197.851 77.679 198.533 77.679C199.223 77.679 199.831 77.8 200.358 78.0419C200.888 78.2839 201.306 78.617 201.611 79.0412C201.916 79.4621 202.075 79.946 202.088 80.4929H200.606ZM206.166 88.169C205.682 88.169 205.245 88.0795 204.853 87.9006C204.462 87.7183 204.152 87.4548 203.924 87.1101C203.698 86.7654 203.586 86.3428 203.586 85.8423C203.586 85.4115 203.669 85.0568 203.834 84.7784C204 84.5 204.224 84.2796 204.505 84.1172C204.787 83.9548 205.102 83.8321 205.45 83.7493C205.798 83.6664 206.153 83.6035 206.514 83.5604C206.971 83.5073 207.343 83.4643 207.628 83.4311C207.913 83.3946 208.12 83.3366 208.249 83.2571C208.378 83.1776 208.443 83.0483 208.443 82.8693V82.8345C208.443 82.4003 208.32 82.0639 208.075 81.8253C207.833 81.5866 207.472 81.4673 206.991 81.4673C206.491 81.4673 206.096 81.5784 205.808 81.8004C205.523 82.0192 205.326 82.2628 205.216 82.5312L203.819 82.2131C203.985 81.7491 204.227 81.3745 204.545 81.0895C204.867 80.8011 205.236 80.5923 205.654 80.4631C206.071 80.3305 206.511 80.2642 206.971 80.2642C207.276 80.2642 207.599 80.3007 207.941 80.3736C208.285 80.4432 208.607 80.5724 208.905 80.7614C209.207 80.9503 209.454 81.2204 209.646 81.5717C209.838 81.9197 209.934 82.3722 209.934 82.929V88H208.483V86.956H208.423C208.327 87.1482 208.183 87.3371 207.991 87.5227C207.798 87.7083 207.551 87.8625 207.25 87.9851C206.948 88.1077 206.587 88.169 206.166 88.169ZM206.489 86.9759C206.9 86.9759 207.251 86.8946 207.543 86.7322C207.838 86.5698 208.062 86.3577 208.214 86.0959C208.37 85.8307 208.448 85.5473 208.448 85.2457V84.2614C208.395 84.3144 208.292 84.3641 208.14 84.4105C207.991 84.4536 207.82 84.4917 207.628 84.5249C207.435 84.5547 207.248 84.5829 207.066 84.6094C206.883 84.6326 206.731 84.6525 206.608 84.669C206.32 84.7055 206.057 84.7668 205.818 84.853C205.583 84.9392 205.394 85.0634 205.251 85.2259C205.112 85.3849 205.042 85.5971 205.042 85.8622C205.042 86.2301 205.178 86.5085 205.45 86.6974C205.722 86.883 206.068 86.9759 206.489 86.9759ZM218.174 80.3636L215.404 88H213.813L211.039 80.3636H212.635L214.569 86.2401H214.649L216.578 80.3636H218.174ZM219.571 88V80.3636H221.057V88H219.571ZM220.321 79.1854C220.063 79.1854 219.841 79.0992 219.655 78.9268C219.473 78.7512 219.382 78.5424 219.382 78.3004C219.382 78.0552 219.473 77.8464 219.655 77.674C219.841 77.4983 220.063 77.4105 220.321 77.4105C220.58 77.4105 220.8 77.4983 220.983 77.674C221.168 77.8464 221.261 78.0552 221.261 78.3004C221.261 78.5424 221.168 78.7512 220.983 78.9268C220.8 79.0992 220.58 79.1854 220.321 79.1854ZM224.543 83.4659V88H223.057V80.3636H224.484V81.6065H224.578C224.754 81.2022 225.029 80.8774 225.403 80.6321C225.781 80.3868 226.257 80.2642 226.83 80.2642C227.351 80.2642 227.806 80.3736 228.198 80.5923C228.589 80.8078 228.892 81.1293 229.107 81.5568C229.323 81.9844 229.43 82.513 229.43 83.1428V88H227.944V83.3217C227.944 82.7682 227.8 82.3357 227.511 82.0241C227.223 81.7093 226.827 81.5518 226.323 81.5518C225.979 81.5518 225.672 81.6264 225.403 81.7756C225.138 81.9247 224.928 82.1435 224.772 82.4318C224.62 82.7169 224.543 83.0616 224.543 83.4659ZM234.626 91.0227C234.019 91.0227 233.497 90.9432 233.06 90.7841C232.626 90.625 232.271 90.4145 231.996 90.1527C231.721 89.8909 231.515 89.6042 231.379 89.2926L232.657 88.7656C232.747 88.9115 232.866 89.0656 233.015 89.228C233.167 89.3937 233.373 89.5346 233.631 89.6506C233.893 89.7666 234.23 89.8246 234.641 89.8246C235.204 89.8246 235.67 89.687 236.038 89.4119C236.406 89.1402 236.59 88.706 236.59 88.1094V86.608H236.495C236.406 86.7704 236.276 86.951 236.107 87.1499C235.942 87.3487 235.713 87.5211 235.421 87.6669C235.13 87.8127 234.75 87.8857 234.283 87.8857C233.68 87.8857 233.136 87.7448 232.652 87.4631C232.171 87.178 231.79 86.7588 231.509 86.2053C231.23 85.6484 231.091 84.964 231.091 84.152C231.091 83.34 231.229 82.6439 231.504 82.0639C231.782 81.4839 232.163 81.0398 232.647 80.7315C233.131 80.42 233.68 80.2642 234.293 80.2642C234.767 80.2642 235.149 80.3438 235.441 80.5028C235.733 80.6586 235.96 80.8409 236.122 81.0497C236.288 81.2585 236.416 81.4425 236.505 81.6016H236.614V80.3636H238.071V88.169C238.071 88.8253 237.919 89.3639 237.614 89.7848C237.309 90.2057 236.896 90.5173 236.376 90.7195C235.859 90.9216 235.275 91.0227 234.626 91.0227ZM234.611 86.6527C235.038 86.6527 235.4 86.5533 235.695 86.3544C235.993 86.1522 236.218 85.8639 236.371 85.4893C236.527 85.1115 236.604 84.6591 236.604 84.1321C236.604 83.6184 236.528 83.166 236.376 82.7749C236.223 82.3838 236 82.0788 235.705 81.8601C235.41 81.638 235.045 81.527 234.611 81.527C234.163 81.527 233.791 81.643 233.492 81.875C233.194 82.1037 232.969 82.4152 232.816 82.8097C232.667 83.2041 232.592 83.6449 232.592 84.1321C232.592 84.6326 232.669 85.0717 232.821 85.4496C232.974 85.8274 233.199 86.1224 233.497 86.3345C233.799 86.5466 234.17 86.6527 234.611 86.6527Z" fill="black"/>
<line x1="88.5" y1="35" x2="88.5" y2="65" stroke="#006B8B"/>
<line x1="178.5" y1="35" x2="178.5" y2="65" stroke="#0E6EAC"/>
</svg>
