<?xml version="1.0" standalone="no"?>
<!DOCTYPE svg PUBLIC "-//W3C//DTD SVG 20010904//EN"
 "http://www.w3.org/TR/2001/REC-SVG-20010904/DTD/svg10.dtd">
<svg version="1.0" xmlns="http://www.w3.org/2000/svg"
 width="739.000000pt" height="696.000000pt" viewBox="0 0 739.000000 696.000000"
 preserveAspectRatio="xMidYMid meet">

<g transform="translate(0.000000,696.000000) scale(0.100000,-0.100000)"
fill="#000000" stroke="none">
<path d="M3064 6624 c-137 -23 -211 -60 -286 -139 -24 -25 -49 -45 -56 -45 -7
0 -10 -4 -7 -10 3 -5 0 -7 -8 -4 -14 5 -40 -44 -52 -100 -3 -17 -14 -41 -24
-55 -24 -34 -50 -158 -52 -241 -1 -73 25 -302 39 -340 7 -19 5 -28 -12 -41
l-20 -16 21 -111 c21 -105 70 -249 96 -281 7 -8 26 -20 43 -27 28 -12 32 -19
38 -67 8 -61 25 -124 57 -214 20 -55 21 -64 8 -90 -8 -15 -20 -28 -26 -28 -7
0 -13 -3 -13 -7 0 -60 3 -91 7 -80 7 18 23 15 23 -5 1 -60 40 -169 90 -252
l55 -90 47 2 c54 2 61 10 51 69 -6 40 -5 41 18 34 13 -4 59 -9 102 -11 63 -3
77 -1 77 10 0 10 10 15 27 15 36 0 93 21 93 35 0 6 30 25 68 43 37 17 86 48
109 69 55 50 163 174 163 188 0 5 9 16 20 23 11 7 20 16 20 22 0 5 13 28 29
52 70 106 92 302 56 498 -36 190 -38 287 -10 360 26 69 -12 326 -77 518 -18
55 -30 72 -86 120 -36 31 -83 74 -105 95 -22 21 -72 55 -111 74 -71 37 -71 37
-206 38 -74 1 -167 -4 -206 -11z m514 -480 c42 -14 83 -32 91 -40 9 -8 16 -36
17 -66 5 -105 13 -137 42 -175 34 -43 47 -81 61 -168 6 -33 14 -80 20 -105 13
-59 14 -227 1 -235 -5 -3 -10 -21 -10 -40 0 -18 -3 -35 -7 -37 -8 -3 -30 -47
-55 -105 -9 -24 -19 -33 -35 -33 -19 0 -23 5 -23 34 0 24 -5 36 -17 40 -31 9
-87 8 -120 -2 -21 -7 -35 -7 -39 -1 -3 5 -11 9 -17 8 -33 -4 -68 2 -62 11 3 6
-3 10 -14 10 -20 0 -46 -20 -53 -40 -2 -6 -23 -14 -46 -17 -38 -5 -47 -2 -74
23 -29 28 -30 32 -25 89 9 98 -7 287 -28 318 -21 32 -78 69 -102 66 -10 -1
-26 1 -36 6 -9 4 -47 5 -82 3 -62 -4 -65 -3 -65 19 0 20 -2 22 -19 12 -33 -21
-48 -5 -54 58 -3 32 -2 62 3 67 7 7 10 -2 10 -23 0 -19 4 -30 10 -26 6 3 10
-3 10 -14 0 -12 7 -21 15 -21 8 0 15 -4 15 -10 0 -5 6 -10 13 -10 18 0 24 160
7 170 -10 6 -15 68 -11 143 2 33 59 47 173 42 96 -3 206 10 224 28 4 4 19 7
33 7 15 0 42 9 61 19 48 27 98 26 188 -5z m-538 -604 c0 -5 -4 -10 -10 -10 -5
0 -10 5 -10 10 0 6 5 10 10 10 6 0 10 -4 10 -10z m53 -7 c4 -3 -2 -13 -14 -21
-23 -16 -32 -12 -23 12 6 16 25 21 37 9z m-123 -23 c9 -16 8 -18 -5 -14 -8 4
-15 12 -15 20 0 20 7 17 20 -6z m110 -29 c0 -6 -5 -13 -11 -17 -15 -9 9 -24
38 -24 24 0 40 -36 30 -64 -3 -7 0 -22 7 -32 12 -17 9 -22 -24 -49 -45 -36
-68 -85 -45 -97 8 -5 12 -15 9 -23 -7 -18 -41 -20 -46 -3 -2 6 -14 -5 -27 -25
-23 -38 -43 -40 -62 -5 -6 10 -16 17 -22 15 -16 -5 -36 22 -37 49 0 11 -3 24
-7 28 -5 4 -9 20 -10 34 -5 78 -16 119 -31 118 -19 -1 -23 24 -5 42 6 6 29 11
50 11 21 -1 30 -3 21 -6 -31 -8 -19 -23 17 -23 19 0 35 5 35 10 0 6 -4 10 -10
10 -5 0 -2 8 8 18 9 10 19 14 21 9 2 -5 7 -4 11 3 4 7 23 16 41 20 47 11 49
11 49 1z m-245 -21 c3 -5 -3 -10 -15 -10 -12 0 -18 5 -15 10 3 6 10 10 15 10
5 0 12 -4 15 -10z m339 -225 c3 -8 1 -15 -4 -15 -6 0 -10 7 -10 15 0 8 2 15 4
15 2 0 6 -7 10 -15z m536 -135 c0 -5 -4 -10 -10 -10 -5 0 -10 5 -10 10 0 6 5
10 10 10 6 0 10 -4 10 -10z m-355 -10 c-11 -5 -31 -8 -45 -8 l-25 0 25 8 c14
4 34 8 45 8 l20 1 -20 -9z m161 -2 c3 -4 -2 -20 -11 -37 -20 -40 -12 -39 39 2
54 44 71 49 90 28 9 -10 16 -21 16 -26 0 -5 7 -17 17 -27 9 -10 11 -18 6 -18
-6 0 -14 -12 -18 -27 -3 -15 -15 -39 -26 -55 -13 -18 -16 -28 -8 -28 7 0 3
-10 -9 -23 -12 -13 -22 -29 -22 -36 0 -8 -9 -22 -21 -32 -11 -10 -18 -23 -14
-28 6 -10 -17 -16 -40 -11 -29 6 -65 5 -65 -2 0 -9 15 -12 40 -8 9 1 6 -6 -9
-19 -13 -12 -28 -21 -33 -21 -5 0 -7 -4 -3 -9 3 -6 -3 -10 -12 -10 -10 0 -26
-1 -37 -3 -13 -2 -20 4 -22 20 -2 12 1 22 7 22 5 0 7 5 4 10 -4 6 -11 8 -16 5
-5 -4 -9 -1 -9 4 0 11 19 15 56 12 18 -1 20 3 16 24 -4 22 -1 25 22 25 29 0
36 29 12 49 -15 13 -165 9 -220 -5 -31 -7 -36 -46 -9 -72 16 -16 15 -17 -6
-20 -34 -5 -46 3 -65 43 -10 21 -27 40 -38 43 -11 3 -17 10 -14 18 3 8 -1 14
-10 14 -8 0 -19 11 -24 25 -5 14 -14 25 -20 25 -13 0 -13 37 0 45 6 4 8 10 5
15 -3 5 -1 11 5 15 5 3 10 2 10 -2 0 -5 16 -17 34 -27 19 -10 45 -29 57 -42
13 -14 33 -24 48 -23 14 0 20 3 14 6 -25 9 -12 21 23 21 19 0 38 3 41 6 4 3
-11 6 -31 6 -30 0 -37 3 -32 15 3 10 -1 18 -12 22 -18 7 -32 22 -32 37 0 4 7
5 16 2 9 -3 21 -3 27 1 6 4 23 8 37 9 39 4 174 37 184 45 9 8 53 6 62 -3z
m-156 -369 c0 -5 -4 -9 -8 -9 -5 0 -9 7 -9 15 0 8 4 12 9 9 4 -3 8 -9 8 -15z"/>
<path d="M3495 5766 c-16 -8 -41 -17 -55 -20 -14 -3 -35 -14 -47 -25 -11 -11
-24 -17 -27 -14 -3 4 -17 -4 -31 -17 -28 -26 -33 -67 -10 -76 8 -4 15 -15 15
-25 0 -17 11 -24 33 -20 5 1 6 -3 2 -9 -3 -5 1 -10 9 -10 10 0 13 -6 10 -15
-4 -10 0 -15 12 -16 11 0 31 -2 47 -4 33 -4 36 10 5 20 -20 6 -18 8 17 17 22
6 43 15 46 20 3 5 10 9 15 9 5 0 9 5 10 12 3 32 5 37 15 37 7 0 9 -9 6 -21 -5
-20 -3 -21 40 -15 57 8 61 11 39 34 -20 23 -79 42 -132 43 l-39 1 35 15 c25
11 54 14 103 10 42 -4 67 -2 67 4 0 28 -25 49 -74 63 -65 19 -73 19 -111 2z
m25 -136 c0 -5 -4 -10 -10 -10 -5 0 -10 5 -10 10 0 6 5 10 10 10 6 0 10 -4 10
-10z m-62 -38 c2 -7 -3 -12 -12 -12 -9 0 -16 7 -16 16 0 17 22 14 28 -4z"/>
<path d="M3258 4973 c7 -3 16 -2 19 1 4 3 -2 6 -13 5 -11 0 -14 -3 -6 -6z"/>
<path d="M3416 4741 c-4 -7 -5 -15 -2 -18 9 -9 19 4 14 18 -4 11 -6 11 -12 0z"/>
<path d="M3890 5785 c0 -8 2 -15 4 -15 2 0 11 -3 20 -6 12 -4 16 0 16 15 0 14
-6 21 -20 21 -11 0 -20 -7 -20 -15z"/>
<path d="M3850 5706 c0 -9 5 -16 10 -16 6 0 10 4 10 9 0 6 -4 13 -10 16 -5 3
-10 -1 -10 -9z"/>
<path d="M3820 4725 c0 -14 8 -29 20 -35 16 -9 19 -18 15 -53 -4 -39 -3 -40 7
-13 8 21 8 38 -1 61 -6 17 -11 39 -11 48 0 9 -7 17 -15 17 -9 0 -15 -9 -15
-25z"/>
<path d="M3821 4528 c-10 -30 -9 -31 4 -14 8 11 15 26 15 33 0 22 -8 14 -19
-19z"/>
<path d="M731 4247 c8 -31 41 -115 102 -262 18 -44 33 -64 56 -75 17 -8 33
-21 36 -28 11 -30 -40 -80 -70 -68 -7 2 -23 25 -34 50 -11 25 -26 46 -34 46
-8 0 -26 18 -41 40 -14 22 -31 40 -36 40 -5 0 -16 12 -24 28 -8 15 -25 39 -38
54 -13 15 -30 37 -40 48 l-16 22 -7 -21 c-5 -15 3 -33 28 -63 44 -56 119 -168
112 -168 -3 0 -1 -9 5 -19 15 -29 3 -49 -26 -43 -13 2 -24 8 -24 13 0 5 -6 9
-14 9 -7 0 -35 17 -62 38 -27 21 -56 41 -65 45 -19 6 -51 91 -42 112 9 25 -15
17 -33 -10 -13 -21 -15 -40 -9 -109 8 -95 29 -172 40 -144 4 9 4 22 0 28 -15
24 64 8 118 -24 47 -28 69 -35 120 -37 34 -2 68 -8 76 -13 8 -6 17 -10 20 -8
3 1 9 -19 12 -45 12 -91 83 -228 134 -258 l30 -18 -40 -13 c-21 -8 -42 -19
-46 -25 -3 -6 -17 -9 -30 -7 -18 2 -24 9 -23 26 0 18 -5 22 -28 22 -40 0 -148
45 -190 80 -19 16 -45 49 -56 73 -12 25 -27 51 -34 58 -7 8 -23 34 -35 59 -18
36 -21 39 -16 15 3 -16 11 -41 18 -55 29 -57 44 -108 49 -167 3 -35 11 -72 18
-83 15 -24 124 -84 132 -72 3 5 42 7 88 4 77 -4 87 -2 141 27 64 34 197 148
197 170 0 10 -3 11 -14 2 -17 -14 -46 -10 -78 11 -25 17 -98 35 -98 25 0 -9
62 -37 82 -37 15 0 18 -5 13 -20 -5 -15 -2 -20 11 -20 13 0 14 -3 4 -15 -13
-16 -65 -21 -56 -6 3 5 -1 12 -10 15 -8 3 -13 10 -10 15 3 5 -4 11 -17 15 -33
8 -87 57 -94 86 -13 56 -10 95 8 108 11 7 19 21 19 30 0 13 2 14 9 4 5 -9 10
3 15 36 4 28 10 52 14 54 13 6 42 66 42 87 0 28 9 26 49 -9 35 -31 50 -39 34
-17 -6 6 -9 37 -8 68 l3 56 -39 17 c-56 25 -178 147 -186 187 l-6 32 -17 -24
c-10 -12 -16 -29 -13 -36 3 -7 0 -13 -6 -13 -6 0 -23 25 -38 55 -30 62 -46 72
-32 22z m211 -216 c34 -34 38 -42 29 -60 -13 -23 -43 -35 -69 -27 -23 8 -53
101 -38 116 18 18 37 11 78 -29z"/>
<path d="M579 4178 c4 -28 6 -29 9 -9 2 13 0 27 -5 32 -6 6 -7 -3 -4 -23z"/>
<path d="M1515 3986 c-7 -64 -8 -65 -32 -55 -30 11 -43 4 -43 -23 0 -11 -8
-22 -20 -25 -11 -3 -20 -14 -20 -24 0 -12 -7 -19 -20 -19 -13 0 -20 -7 -20
-20 0 -15 -7 -20 -26 -20 -25 0 -26 -2 -20 -35 5 -23 3 -40 -6 -49 -7 -8 -21
-25 -31 -39 -11 -14 -25 -23 -32 -21 -7 3 -15 -5 -19 -19 -3 -14 -9 -33 -13
-43 -4 -11 -3 -15 4 -11 7 5 9 -1 5 -15 -3 -12 -1 -19 4 -15 6 3 11 -33 12
-85 2 -54 9 -99 17 -112 7 -11 16 -45 20 -75 l7 -54 15 34 c39 93 150 429 187
564 12 44 25 85 29 91 4 7 9 29 12 49 2 21 7 45 10 55 3 10 1 21 -4 24 -5 4
-12 -21 -16 -58z"/>
<path d="M5620 3984 c45 -17 59 -29 65 -58 l7 -31 13 35 c7 19 10 38 6 42 -4
4 -29 10 -56 13 -28 3 -43 3 -35 -1z"/>
<path d="M5268 3899 c-157 -13 -171 -19 -268 -117 -47 -48 -94 -104 -105 -124
-31 -60 -11 -64 80 -18 85 43 115 46 178 15 26 -13 28 -12 54 23 16 20 60 78
100 128 70 88 82 106 66 103 -5 -1 -52 -5 -105 -10z"/>
<path d="M5740 3845 c0 -34 1 -35 28 -29 36 9 52 23 52 45 0 15 -8 19 -40 19
-39 0 -40 -1 -40 -35z"/>
<path d="M6193 3863 c-26 -10 -13 -33 18 -33 24 0 30 4 27 17 -3 18 -24 26
-45 16z"/>
<path d="M1231 3778 c-1 -23 0 -19 -17 -80 -16 -62 -18 -81 -4 -73 5 3 7 12 4
19 -3 8 -1 17 5 21 6 3 11 17 11 31 0 15 6 24 15 24 8 0 15 -4 15 -10 0 -18
18 -11 23 9 3 15 -1 21 -16 23 -13 2 -24 13 -28 28 -4 16 -7 19 -8 8z"/>
<path d="M490 3751 c0 -6 5 -13 10 -16 6 -3 10 1 10 9 0 9 -4 16 -10 16 -5 0
-10 -4 -10 -9z"/>
<path d="M1771 3744 c0 -11 3 -14 6 -6 3 7 2 16 -1 19 -3 4 -6 -2 -5 -13z"/>
<path d="M5381 3744 c0 -11 3 -14 6 -6 3 7 2 16 -1 19 -3 4 -6 -2 -5 -13z"/>
<path d="M5482 3700 c-8 -13 -8 -20 -2 -20 6 0 13 7 17 15 9 24 -1 27 -15 5z"/>
<path d="M5317 3703 c-10 -9 -9 -113 1 -113 14 0 32 23 31 40 0 10 -2 11 -6 3
-12 -30 -24 -10 -19 32 5 46 4 50 -7 38z"/>
<path d="M1736 3604 c9 -40 24 -54 24 -22 0 14 -7 31 -16 39 -13 11 -14 9 -8
-17z"/>
<path d="M2533 3602 c-7 -4 -9 -13 -4 -21 6 -10 10 -9 15 5 8 20 4 25 -11 16z"/>
<path d="M6176 3574 c-11 -27 -7 -37 9 -24 16 14 20 40 6 40 -5 0 -12 -7 -15
-16z"/>
<path d="M6425 3573 c5 -10 17 -40 27 -68 l19 -50 -5 54 c-5 52 -19 81 -38 81
-6 0 -7 -8 -3 -17z"/>
<path d="M6280 3496 c0 -9 5 -16 10 -16 6 0 10 4 10 9 0 6 -4 13 -10 16 -5 3
-10 -1 -10 -9z"/>
<path d="M1751 3474 c0 -11 3 -14 6 -6 3 7 2 16 -1 19 -3 4 -6 -2 -5 -13z"/>
<path d="M1775 3470 c3 -5 14 -10 23 -10 15 0 15 2 2 10 -20 13 -33 13 -25 0z"/>
<path d="M6768 3446 c-23 -21 -26 -30 -21 -60 4 -26 11 -36 23 -36 10 0 25 -3
34 -6 9 -3 16 -1 16 5 0 6 -9 11 -20 11 -16 0 -20 7 -20 36 0 19 5 44 10 55
14 24 11 24 -22 -5z"/>
<path d="M6946 3422 c-9 -15 21 -49 34 -36 7 7 5 15 -9 28 -10 9 -22 13 -25 8z"/>
<path d="M2490 3387 l-25 -11 27 -3 c35 -5 37 -18 44 -236 3 -100 7 -204 10
-232 12 -154 45 -705 49 -831 3 -81 9 -152 14 -158 5 -6 11 -29 13 -51 l4 -40
18 40 c14 31 16 43 7 57 -9 14 -8 24 1 41 7 12 12 25 11 28 -1 3 -4 43 -7 90
-9 129 -26 302 -42 424 -31 232 -74 719 -74 838 0 61 -5 65 -50 44z"/>
<path d="M1937 3379 c7 -7 15 -10 18 -7 3 3 -2 9 -12 12 -14 6 -15 5 -6 -5z"/>
<path d="M6588 3338 c0 -13 -2 -56 -3 -96 -1 -61 1 -71 15 -68 62 17 60 16 48
44 -6 15 -13 52 -17 82 -4 41 -10 56 -23 58 -13 2 -18 -3 -20 -20z"/>
<path d="M2017 3329 c7 -7 15 -10 18 -7 3 3 -2 9 -12 12 -14 6 -15 5 -6 -5z"/>
<path d="M6401 3246 c-6 -16 -10 -31 -7 -33 7 -8 28 37 23 50 -3 7 -10 -1 -16
-17z"/>
<path d="M5620 3230 c20 -13 33 -13 25 0 -3 6 -14 10 -23 10 -15 0 -15 -2 -2
-10z"/>
<path d="M6448 3206 c-16 -33 -16 -34 9 -56 l25 -21 -8 23 c-5 13 -8 38 -8 56
0 17 0 32 -1 32 -1 0 -9 -15 -17 -34z"/>
<path d="M5700 3220 c0 -5 10 -10 23 -10 12 0 39 -3 60 -6 24 -4 37 -3 37 4 0
6 -7 9 -15 6 -8 -4 -15 -1 -15 5 0 6 -19 11 -45 11 -25 0 -45 -4 -45 -10z"/>
<path d="M602 3145 c0 -16 2 -22 5 -12 2 9 2 23 0 30 -3 6 -5 -1 -5 -18z"/>
<path d="M830 3141 c0 -25 6 -27 13 -6 4 8 2 17 -3 20 -6 4 -10 -3 -10 -14z"/>
<path d="M6417 3146 c-6 -14 0 -26 13 -26 3 0 6 9 7 20 2 23 -12 27 -20 6z"/>
<path d="M3826 3106 c-31 -65 -13 -140 39 -164 35 -16 35 -16 35 18 0 17 -5
30 -11 30 -25 0 -36 27 -34 88 0 34 -2 62 -6 62 -4 0 -14 -15 -23 -34z"/>
<path d="M5060 3098 c-36 -11 -71 -22 -79 -24 -10 -3 -11 -7 -2 -18 14 -17 77
-11 101 10 9 7 36 22 60 33 42 19 43 21 15 20 -16 0 -59 -9 -95 -21z"/>
<path d="M5950 3090 c-9 -5 -3 -13 19 -26 17 -10 31 -24 31 -30 0 -6 -51 -28
-114 -48 l-114 -37 -44 45 c-27 26 -60 48 -84 55 -49 14 -77 14 -69 1 4 -6 -8
-10 -29 -10 -21 0 -36 5 -36 12 0 9 -3 9 -12 0 -10 -10 -10 -15 2 -22 8 -5 18
-7 22 -4 19 12 128 -76 128 -105 0 -11 -172 -51 -265 -61 -67 -7 -82 -12 -95
-31 -16 -24 -78 -85 -119 -117 -23 -18 -23 -18 -8 -77 23 -89 28 -170 12 -192
-8 -10 -15 -26 -15 -35 0 -28 27 -21 38 10 l10 27 1 -27 c1 -16 5 -28 9 -28 4
0 8 -10 9 -21 1 -12 10 -30 20 -39 10 -10 27 -30 38 -45 11 -14 35 -41 53 -60
17 -19 32 -40 33 -47 0 -7 2 -26 2 -43 2 -26 5 -30 30 -28 20 1 27 -3 27 -16
0 -10 8 -27 18 -39 9 -11 26 -32 36 -47 16 -21 25 -25 48 -20 20 5 30 2 34 -9
3 -9 12 -16 20 -16 8 0 27 -21 43 -47 l29 -46 -21 -29 c-17 -23 -18 -31 -8
-41 10 -10 16 -7 32 12 11 13 18 29 16 35 -4 12 118 75 147 76 10 0 43 23 73
50 61 56 76 62 67 25 -5 -19 -2 -25 10 -25 18 0 36 37 29 57 -2 6 6 14 19 18
45 14 245 114 294 147 28 19 64 40 81 47 17 7 39 21 49 32 16 18 16 19 -7 20
l-24 1 25 8 c22 6 23 8 8 15 -10 4 -15 11 -12 16 3 5 0 9 -6 9 -6 0 -9 4 -5 9
3 5 -2 17 -11 25 -8 9 -12 16 -8 16 4 0 -3 9 -16 20 -13 11 -20 20 -16 20 6 0
-82 170 -94 180 -3 3 -11 16 -17 30 -7 14 -24 44 -38 68 -14 23 -21 42 -16 42
6 0 11 -7 11 -15 0 -17 35 -21 45 -5 3 5 0 7 -8 4 -8 -3 -18 -1 -21 4 -3 6 5
13 19 16 14 4 25 11 25 16 0 6 4 10 10 10 5 0 7 -7 4 -15 -4 -8 -1 -15 5 -15
6 0 11 -4 11 -10 0 -5 -8 -10 -17 -10 -13 0 -11 -6 11 -29 26 -27 28 -34 22
-80 -4 -30 -3 -51 3 -51 16 0 19 19 46 229 5 39 4 39 -114 -5 l-74 -27 -24 29
c-13 16 -26 40 -29 54 -19 92 -51 173 -74 188 -14 9 -34 23 -45 32 -27 23 -49
30 -65 20z m405 -312 c-11 -35 -24 -45 -35 -28 -7 11 -4 17 8 22 9 4 13 7 9 7
-12 1 2 21 14 21 6 0 7 -10 4 -22z m-1007 -199 c-23 -13 -23 -62 -1 -80 15
-12 16 -12 10 4 -3 9 -2 17 3 17 6 0 10 -4 10 -9 0 -5 3 -16 6 -25 9 -24 -19
-20 -44 7 -14 14 -20 31 -17 46 5 28 23 51 39 51 6 0 3 -5 -6 -11z m53 -26
c13 -15 12 -15 -7 -5 -15 8 -24 8 -32 0 -14 -14 -27 -4 -17 11 10 16 41 13 56
-6z m1 -45 c-6 -6 -15 -8 -19 -4 -4 4 -1 11 7 16 19 12 27 3 12 -12z m96 -25
c37 -51 -16 -120 -71 -92 -12 7 -25 17 -29 23 -13 18 -9 60 7 83 13 18 20 20
48 12 17 -5 38 -17 45 -26z m610 -318 c16 -35 16 -35 -15 -35 -25 0 -25 1 -9
13 17 13 17 14 1 30 -13 13 -13 17 -2 17 7 0 19 -11 25 -25z"/>
<path d="M5418 2489 c-21 -12 -24 -59 -6 -77 18 -18 59 -15 74 6 19 24 17 46
-4 65 -21 19 -39 21 -64 6z m48 -13 c10 -8 15 -18 11 -22 -4 -5 -12 -3 -16 4
-4 7 -15 10 -24 6 -17 -6 -23 6 -10 19 9 10 17 9 39 -7z"/>
<path d="M5440 3040 c0 -5 5 -10 11 -10 5 0 7 5 4 10 -3 6 -8 10 -11 10 -2 0
-4 -4 -4 -10z"/>
<path d="M4420 3030 c0 -8 24 -14 33 -8 1 1 15 -10 31 -25 16 -15 33 -27 37
-27 14 0 10 -28 -3 -33 -7 -3 -3 -6 10 -6 12 -1 22 -6 22 -12 0 -5 -4 -8 -8
-5 -4 2 -14 1 -22 -5 -11 -6 -8 -9 13 -9 15 0 63 -12 106 -26 68 -22 88 -35
140 -86 34 -33 61 -66 61 -73 0 -17 19 -22 54 -16 28 6 27 7 -38 49 -55 35
-66 47 -66 70 0 48 -22 66 -175 141 -79 38 -179 81 -189 81 -3 0 -6 -4 -6 -10z"/>
<path d="M5270 3006 c0 -2 9 -6 20 -9 11 -3 20 -1 20 4 0 5 -9 9 -20 9 -11 0
-20 -2 -20 -4z"/>
<path d="M3613 2963 c2 -5 12 -26 22 -48 10 -22 34 -60 54 -85 49 -60 71 -96
71 -115 0 -8 5 -15 10 -15 6 0 10 5 10 12 0 6 8 20 17 31 17 18 17 19 -2 33
-41 29 -89 81 -127 137 -21 31 -43 57 -49 57 -6 0 -8 -3 -6 -7z"/>
<path d="M4053 2937 c-12 -19 -41 -28 -47 -14 -2 7 -4 -1 -4 -18 0 -16 2 -24
5 -17 7 17 33 -4 33 -26 0 -30 18 3 25 46 7 42 3 53 -12 29z"/>
<path d="M631 2914 c0 -11 3 -14 6 -6 3 7 2 16 -1 19 -3 4 -6 -2 -5 -13z"/>
<path d="M2734 2808 c-7 -82 -12 -112 -21 -110 -7 1 -18 3 -25 5 -7 1 -20 -14
-30 -33 -9 -19 -22 -41 -28 -48 -6 -7 -8 -17 -4 -23 4 -6 8 -41 9 -78 4 -99
16 -264 21 -279 2 -7 9 -10 15 -6 8 4 8 1 2 -12 -10 -20 -10 -48 2 -151 5 -39
12 -60 18 -56 6 4 8 0 4 -10 -4 -10 -10 -23 -13 -31 -3 -8 3 -23 13 -33 10
-10 18 -24 19 -30 2 -29 5 -33 18 -33 8 0 27 -23 43 -52 32 -59 42 -44 23 33
-7 24 -14 56 -17 72 -3 15 -9 27 -13 27 -10 0 -18 60 -23 169 -2 54 -7 86 -15
89 -18 6 -15 79 3 85 8 4 18 1 21 -5 4 -7 2 -14 -4 -16 -7 -2 -12 -10 -12 -18
0 -9 4 -13 9 -10 5 4 12 0 14 -6 9 -22 24 9 31 62 4 29 2 58 -5 74 -9 19 -9
42 -1 93 14 82 -3 174 -28 158 -4 -3 -8 59 -9 137 -1 78 -3 143 -5 145 -2 2
-8 -47 -12 -109z m-46 -204 c2 -1 -8 -1 -22 -1 -17 0 -23 4 -19 14 4 11 8 11
22 1 9 -7 17 -13 19 -14z m12 -43 c0 -11 -4 -22 -9 -25 -12 -8 -34 21 -26 34
11 17 35 11 35 -9z m-9 -184 c-3 -13 -7 -15 -17 -6 -10 8 -11 16 -3 30 5 11 7
24 3 30 -3 6 -2 27 2 47 8 36 8 36 14 -23 3 -33 3 -68 1 -78z m-1 -48 c0 -5
-4 -9 -10 -9 -5 0 -10 7 -10 16 0 8 5 12 10 9 6 -3 10 -10 10 -16z"/>
<path d="M4180 2901 c0 -6 5 -13 10 -16 6 -3 10 1 10 9 0 9 -4 16 -10 16 -5 0
-10 -4 -10 -9z"/>
<path d="M613 2844 c-7 -7 -13 -27 -13 -44 0 -16 -4 -30 -10 -30 -5 0 -10 16
-10 35 0 19 -4 35 -10 35 -5 0 -10 -18 -10 -40 0 -33 -3 -40 -20 -40 -15 0
-20 -7 -20 -25 0 -14 -4 -25 -10 -25 -5 0 -10 -7 -10 -15 0 -8 -8 -15 -19 -15
-10 0 -21 -9 -24 -20 -3 -11 -14 -20 -25 -20 -11 0 -22 -9 -25 -21 -3 -11 -15
-23 -26 -26 -12 -3 -21 -12 -21 -19 0 -8 -9 -14 -20 -14 -13 0 -20 -7 -20 -20
0 -13 7 -20 19 -20 14 0 18 -5 14 -20 -3 -11 -12 -20 -19 -20 -8 0 -14 -8 -14
-19 0 -10 -9 -21 -20 -24 -17 -4 -20 -14 -20 -56 0 -41 -4 -52 -21 -62 -20
-10 -21 -15 -14 -165 5 -111 4 -154 -4 -154 -6 0 -11 -17 -11 -40 0 -22 5 -40
10 -40 6 0 10 -18 10 -40 0 -33 -3 -40 -20 -40 -18 0 -20 -6 -19 -52 0 -29 3
-47 6 -40 2 6 9 12 15 12 7 0 8 -28 3 -80 -5 -56 -4 -80 4 -80 6 0 11 -17 11
-39 0 -22 5 -41 10 -43 8 -2 21 -256 20 -410 0 -36 36 -40 43 -5 l4 22 2 -22
c0 -13 8 -23 16 -23 19 0 19 -29 0 -36 -20 -8 -20 -80 0 -88 19 -7 19 -36 0
-36 -21 0 -21 -86 0 -106 8 -9 15 -33 15 -55 0 -36 2 -39 26 -39 27 0 27 0 21
-60 -8 -69 2 -187 14 -169 8 14 17 -66 18 -164 0 -79 7 -107 27 -107 10 0 14
-13 14 -49 0 -26 3 -76 6 -110 l7 -61 478 0 479 0 4 23 c3 12 7 60 10 107 3
51 15 118 31 167 36 116 83 529 115 1018 5 83 17 240 25 350 24 328 68 957 70
998 0 4 -4 8 -9 10 -11 3 -17 -46 -16 -143 0 -107 -28 -319 -56 -418 -24 -91
-51 -128 -114 -163 -19 -11 -82 -49 -140 -85 -180 -111 -210 -110 -340 9 -166
153 -291 381 -330 604 -12 64 -23 119 -25 123 -7 11 -36 151 -43 206 -6 42 -9
49 -19 38z"/>
<path d="M6525 2841 c-3 -5 -1 -12 5 -16 5 -3 10 1 10 9 0 18 -6 21 -15 7z"/>
<path d="M3900 2831 c0 -5 5 -13 10 -16 6 -3 10 -2 10 4 0 5 -4 13 -10 16 -5
3 -10 2 -10 -4z"/>
<path d="M1688 2777 c6 -6 12 -28 15 -47 3 -30 4 -28 5 13 2 37 -1 47 -14 47
-12 0 -14 -3 -6 -13z"/>
<path d="M837 2745 c8 -17 22 -32 30 -32 13 0 13 2 -1 12 -17 13 -22 35 -6 35
20 0 60 -24 60 -37 0 -7 5 -13 10 -13 15 0 12 26 -6 40 -8 8 -35 16 -59 20
l-43 7 15 -32z"/>
<path d="M6517 2716 c-4 -10 -5 -21 -2 -24 9 -9 17 6 13 25 -3 17 -4 17 -11
-1z"/>
<path d="M3926 2683 c-11 -11 -6 -23 9 -23 8 0 15 4 15 9 0 13 -16 22 -24 14z"/>
<path d="M4060 2671 c0 -10 50 -25 57 -18 2 3 -10 9 -26 15 -17 6 -31 7 -31 3z"/>
<path d="M6570 2665 c0 -8 2 -15 4 -15 2 0 6 7 10 15 3 8 1 15 -4 15 -6 0 -10
-7 -10 -15z"/>
<path d="M2620 2654 c0 -8 5 -12 10 -9 6 4 8 11 5 16 -9 14 -15 11 -15 -7z"/>
<path d="M3005 2570 c26 -135 46 -196 71 -217 35 -32 44 -29 32 10 -6 17 -12
44 -15 60 -3 15 -9 27 -13 27 -4 0 -10 10 -14 23 -5 19 -8 20 -17 7 -9 -12
-10 -11 -6 7 6 25 -14 88 -32 106 -11 10 -12 5 -6 -23z"/>
<path d="M6505 2580 c-3 -5 -1 -10 4 -10 6 0 11 5 11 10 0 6 -2 10 -4 10 -3 0
-8 -4 -11 -10z"/>
<path d="M6667 2584 c-4 -4 -7 -14 -7 -23 0 -11 3 -12 11 -4 6 6 10 16 7 23
-2 6 -7 8 -11 4z"/>
<path d="M6707 2536 c-4 -10 -5 -21 -2 -24 9 -9 17 6 13 25 -3 17 -4 17 -11
-1z"/>
<path d="M6611 2503 c-1 -6 -4 -20 -7 -30 -5 -17 -5 -17 6 0 6 10 9 23 6 30
-3 9 -5 9 -5 0z"/>
<path d="M6746 2494 c-4 -9 -4 -19 -1 -22 2 -3 7 3 11 12 4 9 4 19 1 22 -2 3
-7 -3 -11 -12z"/>
<path d="M3290 2471 c0 -5 9 -11 20 -14 10 -3 27 -22 37 -43 10 -22 19 -41 21
-44 6 -9 22 25 17 39 -3 7 0 20 6 27 8 10 5 14 -18 19 -15 4 -38 11 -51 16
-28 11 -32 11 -32 0z"/>
<path d="M3121 2454 c0 -11 3 -14 6 -6 3 7 2 16 -1 19 -3 4 -6 -2 -5 -13z"/>
<path d="M6487 2454 c-4 -4 -7 -14 -7 -23 0 -11 3 -12 11 -4 6 6 10 16 7 23
-2 6 -7 8 -11 4z"/>
<path d="M6645 2447 c-4 -10 -5 -21 -1 -24 10 -10 18 4 13 24 -4 17 -4 17 -12
0z"/>
<path d="M6535 2399 c-9 -28 1 -36 14 -10 7 12 7 22 2 26 -5 3 -13 -4 -16 -16z"/>
<path d="M6686 2404 c-9 -22 3 -32 14 -14 12 19 12 30 1 30 -5 0 -12 -7 -15
-16z"/>
<path d="M920 2407 c0 -2 8 -22 17 -43 13 -30 18 -35 21 -20 2 10 -1 22 -8 26
-6 4 -10 13 -8 20 2 7 -3 15 -9 17 -7 3 -13 3 -13 0z"/>
<path d="M5003 2385 c-3 -9 -3 -18 0 -21 9 -9 27 6 27 22 0 19 -19 18 -27 -1z"/>
<path d="M740 2364 c0 -35 94 -223 106 -212 4 5 -38 121 -46 128 -4 3 -17 26
-29 53 -24 50 -31 57 -31 31z"/>
<path d="M4836 2361 c-4 -7 -5 -15 -2 -18 9 -9 19 4 14 18 -4 11 -6 11 -12 0z"/>
<path d="M6580 2349 c0 -11 5 -17 10 -14 6 3 10 13 10 21 0 8 -4 14 -10 14 -5
0 -10 -9 -10 -21z"/>
<path d="M6727 2363 c-4 -3 -7 -11 -7 -17 0 -6 5 -5 12 2 6 6 9 14 7 17 -3 3
-9 2 -12 -2z"/>
<path d="M5087 2343 c-4 -3 -7 -12 -7 -20 0 -17 26 -17 33 1 8 21 -11 35 -26
19z"/>
<path d="M4645 2330 c4 -6 11 -8 16 -5 14 9 11 15 -7 15 -8 0 -12 -5 -9 -10z"/>
<path d="M6476 2314 c-4 -9 -4 -19 -1 -22 2 -3 7 3 11 12 4 9 4 19 1 22 -2 3
-7 -3 -11 -12z"/>
<path d="M6626 2314 c-9 -22 3 -32 14 -14 12 19 12 30 1 30 -5 0 -12 -7 -15
-16z"/>
<path d="M4260 2310 c0 -5 5 -10 10 -10 6 0 10 5 10 10 0 6 -4 10 -10 10 -5 0
-10 -4 -10 -10z"/>
<path d="M3523 2303 c-36 -5 -43 -20 -15 -30 38 -15 92 -67 92 -90 0 -24 15
-32 22 -10 3 6 2 39 -1 72 -6 58 -7 60 -36 61 -16 1 -45 -1 -62 -3z"/>
<path d="M4915 2299 c-4 -6 -4 -13 -1 -16 8 -8 36 5 36 17 0 13 -27 13 -35 -1z"/>
<path d="M5167 2293 c-4 -3 -7 -12 -7 -20 0 -17 26 -17 33 1 8 21 -11 35 -26
19z"/>
<path d="M6517 2283 c-4 -3 -7 -15 -7 -25 0 -26 24 -17 28 10 3 21 -8 29 -21
15z"/>
<path d="M6670 2271 c-6 -12 -7 -21 -1 -21 10 0 24 30 17 37 -2 3 -9 -5 -16
-16z"/>
<path d="M2960 2251 c0 -6 7 -11 15 -11 8 0 16 -9 16 -20 2 -23 1 -20 17 -77
14 -46 32 -66 32 -34 0 12 -6 21 -12 21 -9 0 -9 3 1 9 12 8 12 17 0 63 -12 46
-18 53 -42 56 -15 2 -27 -1 -27 -7z"/>
<path d="M4550 2250 c0 -5 5 -10 10 -10 6 0 10 5 10 10 0 6 -4 10 -10 10 -5 0
-10 -4 -10 -10z"/>
<path d="M5007 2253 c-13 -13 -7 -32 8 -27 8 4 15 12 15 20 0 15 -12 19 -23 7z"/>
<path d="M4165 2240 c3 -5 8 -10 11 -10 2 0 4 5 4 10 0 6 -5 10 -11 10 -5 0
-7 -4 -4 -10z"/>
<path d="M5237 2235 c-7 -16 8 -29 23 -20 15 9 12 35 -4 35 -8 0 -16 -7 -19
-15z"/>
<path d="M6561 2228 c-5 -14 -5 -24 1 -27 12 -4 28 17 28 37 0 20 -20 13 -29
-10z"/>
<path d="M6706 2223 c-6 -14 -5 -15 5 -6 7 7 10 15 7 18 -3 3 -9 -2 -12 -12z"/>
<path d="M6410 2215 c-7 -9 -8 -15 -2 -15 5 0 12 7 16 15 3 8 4 15 2 15 -2 0
-9 -7 -16 -15z"/>
<path d="M5308 2195 c-9 -19 -9 -28 0 -37 18 -18 46 13 37 41 -9 28 -23 27
-37 -4z"/>
<path d="M5083 2195 c-3 -9 -3 -18 0 -21 9 -9 27 6 27 22 0 19 -19 18 -27 -1z"/>
<path d="M6612 2193 c-18 -32 -16 -51 4 -31 9 8 14 24 12 34 -4 18 -5 17 -16
-3z"/>
<path d="M6445 2179 c-9 -29 4 -38 21 -15 18 25 18 36 0 36 -8 0 -18 -9 -21
-21z"/>
<path d="M4070 2175 c0 -8 5 -15 10 -15 6 0 10 7 10 15 0 8 -4 15 -10 15 -5 0
-10 -7 -10 -15z"/>
<path d="M4921 2166 c-7 -8 -8 -17 -3 -20 6 -3 15 1 21 8 7 8 8 17 3 20 -6 3
-15 -1 -21 -8z"/>
<path d="M5163 2145 c-3 -9 -3 -18 0 -21 9 -9 27 6 27 22 0 19 -19 18 -27 -1z"/>
<path d="M6495 2139 c-8 -23 -1 -34 14 -24 13 8 15 45 2 45 -5 0 -13 -9 -16
-21z"/>
<path d="M6646 2144 c-11 -27 -7 -37 9 -24 16 14 20 40 6 40 -5 0 -12 -7 -15
-16z"/>
<path d="M5013 2123 c-16 -6 -17 -33 -3 -33 11 0 26 28 19 34 -2 2 -10 1 -16
-1z"/>
<path d="M4170 2110 c0 -5 5 -10 10 -10 6 0 10 5 10 10 0 6 -4 10 -10 10 -5 0
-10 -4 -10 -10z"/>
<path d="M5242 2108 c-14 -14 -16 -38 -4 -38 12 0 32 23 32 37 0 16 -12 17
-28 1z"/>
<path d="M6393 2109 c-7 -7 -13 -22 -13 -33 0 -19 1 -19 16 -4 9 8 14 23 12
32 -2 14 -5 15 -15 5z"/>
<path d="M6545 2099 c-4 -11 -4 -23 0 -27 7 -7 25 17 25 36 0 20 -18 14 -25
-9z"/>
<path d="M6687 2103 c-4 -3 -7 -11 -7 -17 0 -6 5 -5 12 2 6 6 9 14 7 17 -3 3
-9 2 -12 -2z"/>
<path d="M4834 2086 c-8 -22 3 -33 18 -18 9 9 9 15 0 24 -9 9 -13 7 -18 -6z"/>
<path d="M5092 2068 c-16 -16 -15 -28 3 -28 8 0 15 9 15 20 0 23 -2 24 -18 8z"/>
<path d="M5312 2068 c-7 -7 -12 -20 -12 -31 0 -30 34 -16 38 16 4 29 -6 35
-26 15z"/>
<path d="M6271 2062 c-14 -26 -14 -52 -1 -52 17 0 35 49 23 61 -8 8 -14 5 -22
-9z"/>
<path d="M6591 2062 c-14 -26 -7 -42 10 -25 6 6 9 19 7 29 -3 17 -5 17 -17 -4z"/>
<path d="M6430 2049 c-7 -11 -9 -23 -6 -26 8 -9 36 17 36 33 0 21 -18 17 -30
-7z"/>
<path d="M4080 2040 c0 -5 5 -10 10 -10 6 0 10 5 10 10 0 6 -4 10 -10 10 -5 0
-10 -4 -10 -10z"/>
<path d="M4465 2040 c3 -5 8 -10 11 -10 2 0 4 5 4 10 0 6 -5 10 -11 10 -5 0
-7 -4 -4 -10z"/>
<path d="M4920 2024 c0 -9 5 -14 12 -12 18 6 21 28 4 28 -9 0 -16 -7 -16 -16z"/>
<path d="M5166 2024 c-19 -18 -17 -39 4 -39 20 0 37 32 24 45 -8 8 -16 7 -28
-6z"/>
<path d="M6100 2030 c-8 -5 -11 -12 -7 -16 4 -4 13 -2 19 4 15 15 7 24 -12 12z"/>
<path d="M5377 2023 c-10 -10 -8 -53 2 -53 17 0 40 30 35 45 -6 16 -26 20 -37
8z"/>
<path d="M6160 2021 c0 -6 5 -13 10 -16 6 -3 10 1 10 9 0 9 -4 16 -10 16 -5 0
-10 -4 -10 -9z"/>
<path d="M6314 2005 c-4 -14 -3 -29 1 -33 8 -8 35 26 35 45 0 24 -29 14 -36
-12z"/>
<path d="M6482 2018 c-14 -14 -16 -38 -2 -38 9 0 30 31 30 44 0 10 -15 7 -28
-6z"/>
<path d="M6637 2024 c-4 -4 -7 -14 -7 -23 0 -11 3 -12 11 -4 6 6 10 16 7 23
-2 6 -7 8 -11 4z"/>
<path d="M4750 2000 c0 -5 5 -10 10 -10 6 0 10 5 10 10 0 6 -4 10 -10 10 -5 0
-10 -4 -10 -10z"/>
<path d="M5006 1984 c-12 -12 -14 -20 -7 -27 8 -8 16 -6 28 6 12 12 14 20 6
28 -7 7 -15 5 -27 -7z"/>
<path d="M4376 1983 c-11 -11 -6 -23 9 -23 8 0 15 4 15 9 0 13 -16 22 -24 14z"/>
<path d="M5242 1978 c-13 -13 -16 -48 -4 -48 14 0 32 23 32 42 0 21 -11 23
-28 6z"/>
<path d="M5440 1971 c-15 -29 -12 -41 10 -41 21 0 40 27 33 48 -7 18 -31 14
-43 -7z"/>
<path d="M6200 1971 c-5 -11 -10 -24 -10 -30 0 -17 27 -13 34 5 16 41 -4 62
-24 25z"/>
<path d="M6373 1979 c-7 -7 -13 -22 -13 -33 0 -19 1 -19 16 -4 9 8 14 23 12
32 -2 14 -5 15 -15 5z"/>
<path d="M6525 1969 c-8 -23 -1 -34 14 -24 13 8 15 45 2 45 -5 0 -13 -9 -16
-21z"/>
<path d="M6032 1969 c2 -6 8 -10 13 -10 5 0 11 4 13 10 2 6 -4 11 -13 11 -9 0
-15 -5 -13 -11z"/>
<path d="M6666 1963 c-6 -14 -5 -15 5 -6 7 7 10 15 7 18 -3 3 -9 -2 -12 -12z"/>
<path d="M4837 1953 c-12 -11 -8 -23 8 -23 8 0 15 7 15 15 0 16 -12 20 -23 8z"/>
<path d="M5080 1930 c-9 -16 -8 -22 4 -26 21 -8 36 3 36 27 0 25 -26 25 -40
-1z"/>
<path d="M5512 1938 c-16 -16 -15 -58 2 -58 19 0 38 26 34 46 -4 22 -20 28
-36 12z"/>
<path d="M6252 1930 c-14 -24 -16 -50 -2 -50 12 0 30 33 30 54 0 22 -13 20
-28 -4z"/>
<path d="M6423 1939 c-7 -7 -13 -22 -13 -33 0 -19 1 -19 16 -4 9 8 14 23 12
32 -2 14 -5 15 -15 5z"/>
<path d="M4666 1931 c-4 -7 -5 -15 -2 -18 9 -9 19 4 14 18 -4 11 -6 11 -12 0z"/>
<path d="M5307 1933 c-12 -12 -7 -43 7 -43 13 0 26 20 26 41 0 10 -23 12 -33
2z"/>
<path d="M5913 1915 c0 -13 3 -22 8 -19 5 3 9 14 9 25 0 10 -4 19 -9 19 -5 0
-8 -11 -8 -25z"/>
<path d="M6577 1934 c-4 -4 -7 -14 -7 -23 0 -11 3 -12 11 -4 6 6 10 16 7 23
-2 6 -7 8 -11 4z"/>
<path d="M4921 1896 c-9 -10 -9 -16 -1 -21 13 -8 42 14 34 26 -8 13 -20 11
-33 -5z"/>
<path d="M5162 1888 c-16 -16 -15 -38 2 -38 18 0 39 27 31 40 -8 13 -18 13
-33 -2z"/>
<path d="M5372 1888 c-16 -16 -15 -48 1 -48 19 0 37 21 37 42 0 21 -20 24 -38
6z"/>
<path d="M5569 1879 c-7 -15 -8 -24 0 -32 14 -14 41 9 41 34 0 26 -27 24 -41
-2z"/>
<path d="M5772 1888 c-17 -17 -15 -48 3 -48 17 0 39 36 30 50 -8 13 -18 13
-33 -2z"/>
<path d="M6128 1875 c-6 -14 -8 -28 -4 -33 10 -9 48 37 40 49 -10 16 -24 10
-36 -16z"/>
<path d="M6300 1879 c-7 -11 -9 -23 -6 -26 8 -9 36 17 36 33 0 21 -18 17 -30
-7z"/>
<path d="M6462 1888 c-14 -14 -16 -38 -2 -38 9 0 30 31 30 44 0 10 -15 7 -28
-6z"/>
<path d="M6617 1894 c-4 -4 -7 -14 -7 -23 0 -11 3 -12 11 -4 6 6 10 16 7 23
-2 6 -7 8 -11 4z"/>
<path d="M4734 1869 c-11 -18 13 -34 31 -19 8 7 15 16 15 21 0 13 -38 11 -46
-2z"/>
<path d="M4570 1850 c0 -5 5 -10 10 -10 6 0 10 5 10 10 0 6 -4 10 -10 10 -5 0
-10 -4 -10 -10z"/>
<path d="M5000 1845 c-10 -12 -10 -19 -2 -27 13 -13 42 6 42 28 0 19 -24 18
-40 -1z"/>
<path d="M5242 1848 c-14 -14 -16 -48 -2 -48 5 0 14 9 21 21 13 25 -1 45 -19
27z"/>
<path d="M5442 1848 c-17 -17 -15 -48 3 -48 9 0 19 10 24 23 13 34 -3 49 -27
25z"/>
<path d="M5824 1835 c-21 -32 -9 -53 17 -29 20 18 26 54 9 54 -5 0 -17 -11
-26 -25z"/>
<path d="M6180 1841 c-14 -26 -13 -41 3 -41 16 0 40 38 32 50 -10 16 -23 12
-35 -9z"/>
<path d="M6352 1848 c-14 -14 -16 -38 -2 -38 13 0 32 38 22 44 -5 3 -14 0 -20
-6z"/>
<path d="M6506 1844 c-11 -27 -7 -37 9 -24 16 14 20 40 6 40 -5 0 -12 -7 -15
-16z"/>
<path d="M6646 1844 c-4 -9 -4 -19 -1 -22 2 -3 7 3 11 12 4 9 4 19 1 22 -2 3
-7 -3 -11 -12z"/>
<path d="M4385 1840 c3 -5 8 -10 11 -10 2 0 4 5 4 10 0 6 -5 10 -11 10 -5 0
-7 -4 -4 -10z"/>
<path d="M4833 1815 c-3 -9 -3 -18 -1 -21 9 -9 38 8 38 22 0 19 -29 18 -37 -1z"/>
<path d="M5709 1808 c-21 -17 -31 -46 -18 -54 16 -10 41 21 37 45 -3 19 -5 20
-19 9z"/>
<path d="M6067 1802 c-9 -10 -17 -24 -17 -30 0 -20 29 -13 41 9 15 29 -3 45
-24 21z"/>
<path d="M6238 1801 c-10 -13 -15 -28 -11 -34 9 -14 35 18 31 39 -3 17 -5 17
-20 -5z"/>
<path d="M6402 1808 c-14 -14 -16 -38 -3 -38 10 0 26 39 19 46 -2 2 -10 -2
-16 -8z"/>
<path d="M6550 1799 c-13 -24 -4 -41 10 -19 10 16 13 40 5 40 -2 0 -9 -9 -15
-21z"/>
<path d="M4657 1804 c-14 -14 -7 -35 11 -32 9 2 17 10 17 17 0 16 -18 25 -28
15z"/>
<path d="M5080 1795 c-10 -12 -10 -19 -2 -27 13 -13 42 6 42 28 0 19 -24 18
-40 -1z"/>
<path d="M5300 1795 c-7 -8 -9 -22 -6 -31 6 -15 8 -15 26 1 11 10 20 24 20 32
0 18 -25 17 -40 -2z"/>
<path d="M5500 1790 c-16 -30 -2 -45 21 -24 10 9 19 23 19 31 0 20 -28 16 -40
-7z"/>
<path d="M5887 1792 c-18 -20 -22 -42 -9 -42 12 0 42 34 42 48 0 17 -15 15
-33 -6z"/>
<path d="M4480 1774 c0 -8 5 -12 10 -9 6 3 10 10 10 16 0 5 -4 9 -10 9 -5 0
-10 -7 -10 -16z"/>
<path d="M4285 1770 c3 -5 10 -10 16 -10 5 0 9 5 9 10 0 6 -7 10 -16 10 -8 0
-12 -4 -9 -10z"/>
<path d="M4916 1764 c-3 -9 -4 -20 0 -25 8 -13 44 9 44 26 0 20 -36 19 -44 -1z"/>
<path d="M6116 1759 c-9 -13 -16 -29 -16 -36 0 -21 18 -15 36 13 23 34 4 56
-20 23z"/>
<path d="M6597 1767 c-11 -29 -9 -43 4 -30 6 6 9 19 7 29 -3 18 -4 18 -11 1z"/>
<path d="M5160 1749 c-13 -24 -8 -34 15 -26 16 7 21 47 5 47 -5 0 -14 -9 -20
-21z"/>
<path d="M5372 1758 c-13 -13 -16 -48 -4 -48 14 0 32 23 32 42 0 21 -11 23
-28 6z"/>
<path d="M5558 1745 c-6 -14 -8 -28 -4 -32 11 -12 41 12 44 36 5 30 -26 27
-40 -4z"/>
<path d="M5750 1751 c-14 -27 -13 -41 5 -41 14 0 35 29 35 49 0 18 -29 12 -40
-8z"/>
<path d="M5942 1758 c-13 -13 -16 -48 -4 -48 14 0 32 23 32 42 0 21 -11 23
-28 6z"/>
<path d="M6280 1749 c-7 -11 -9 -23 -6 -26 8 -9 36 17 36 33 0 21 -18 17 -30
-7z"/>
<path d="M6443 1755 c-9 -25 4 -29 17 -6 7 15 7 21 0 21 -6 0 -13 -7 -17 -15z"/>
<path d="M4746 1735 c-4 -10 1 -15 14 -15 11 0 20 7 20 15 0 8 -6 15 -14 15
-8 0 -16 -7 -20 -15z"/>
<path d="M4560 1715 c0 -8 9 -15 20 -15 11 0 20 7 20 15 0 8 -9 15 -20 15 -11
0 -20 -7 -20 -15z"/>
<path d="M5002 1717 c-7 -7 -7 -18 -2 -27 7 -11 11 -11 24 -1 9 8 16 20 16 27
0 18 -24 18 -38 1z"/>
<path d="M5236 1715 c-20 -20 -21 -45 -1 -45 19 0 36 32 26 49 -6 10 -12 9
-25 -4z"/>
<path d="M5436 1715 c-9 -9 -16 -23 -16 -31 0 -21 28 -17 41 7 15 29 -3 46
-25 24z"/>
<path d="M5624 1705 c-19 -29 -11 -44 14 -29 19 12 29 54 13 54 -6 0 -18 -11
-27 -25z"/>
<path d="M5808 1705 c-6 -14 -8 -28 -4 -33 10 -9 48 37 40 49 -10 16 -24 10
-36 -16z"/>
<path d="M6003 1718 c-21 -28 -24 -38 -9 -38 8 0 18 9 21 21 8 25 2 34 -12 17z"/>
<path d="M6167 1710 c-11 -16 -13 -26 -6 -29 16 -5 31 14 27 35 -3 17 -5 16
-21 -6z"/>
<path d="M6330 1711 c-7 -15 -7 -21 0 -21 12 0 25 28 17 36 -3 3 -10 -4 -17
-15z"/>
<path d="M6486 1714 c-4 -9 -4 -19 -2 -21 8 -8 26 8 26 23 0 19 -16 18 -24 -2z"/>
<path d="M212 1700 c0 -14 2 -19 5 -12 2 6 2 18 0 25 -3 6 -5 1 -5 -13z"/>
<path d="M4195 1710 c-3 -6 1 -13 10 -16 19 -8 30 0 20 15 -8 14 -22 14 -30 1z"/>
<path d="M4387 1713 c-12 -11 -8 -23 8 -23 8 0 15 7 15 15 0 16 -12 20 -23 8z"/>
<path d="M4831 1681 c-8 -14 -7 -20 2 -24 20 -7 37 4 37 24 0 25 -26 25 -39 0z"/>
<path d="M5685 1670 c-10 -11 -15 -26 -11 -36 6 -15 8 -15 26 1 11 10 20 24
20 31 0 22 -17 24 -35 4z"/>
<path d="M6222 1678 c-14 -14 -16 -38 -3 -38 10 0 26 39 19 46 -2 2 -10 -2
-16 -8z"/>
<path d="M6376 1674 c-11 -27 -7 -37 9 -24 16 14 20 40 6 40 -5 0 -12 -7 -15
-16z"/>
<path d="M6537 1684 c-4 -4 -7 -14 -7 -23 0 -11 3 -12 11 -4 6 6 10 16 7 23
-2 6 -7 8 -11 4z"/>
<path d="M5080 1661 c-7 -14 -7 -22 0 -26 13 -8 40 13 40 31 0 21 -28 17 -40
-5z"/>
<path d="M5294 1655 c-4 -14 -4 -29 0 -32 9 -10 36 18 36 38 0 28 -29 23 -36
-6z"/>
<path d="M5491 1658 c-5 -13 -5 -24 1 -26 12 -5 38 18 38 34 0 23 -30 16 -39
-8z"/>
<path d="M6047 1673 c-4 -3 -7 -15 -7 -26 0 -16 3 -17 15 -7 8 7 15 19 15 26
0 15 -12 19 -23 7z"/>
<path d="M3130 1650 c0 -5 5 -10 11 -10 5 0 7 5 4 10 -3 6 -8 10 -11 10 -2 0
-4 -4 -4 -10z"/>
<path d="M4105 1650 c-3 -6 1 -13 10 -16 19 -8 30 0 20 15 -8 14 -22 14 -30 1z"/>
<path d="M4290 1640 c0 -5 7 -10 15 -10 8 0 15 5 15 10 0 6 -7 10 -15 10 -8 0
-15 -4 -15 -10z"/>
<path d="M4920 1635 c-10 -11 -10 -19 -2 -27 15 -15 44 -2 40 19 -4 23 -22 27
-38 8z"/>
<path d="M5746 1634 c-9 -8 -16 -24 -16 -35 0 -16 3 -18 19 -10 20 11 34 48
21 56 -5 3 -16 -2 -24 -11z"/>
<path d="M5162 1628 c-13 -13 -16 -48 -4 -48 14 0 32 23 32 42 0 21 -11 23
-28 6z"/>
<path d="M5358 1615 c-13 -29 -8 -38 15 -29 18 6 30 32 21 45 -10 16 -24 10
-36 -16z"/>
<path d="M5564 1632 c-17 -12 -25 -42 -11 -42 17 0 37 20 37 37 0 14 -10 16
-26 5z"/>
<path d="M5930 1619 c0 -11 5 -17 10 -14 6 3 10 13 10 21 0 8 -4 14 -10 14 -5
0 -10 -9 -10 -21z"/>
<path d="M6096 1624 c-4 -9 -4 -19 -2 -21 8 -8 26 8 26 23 0 19 -16 18 -24 -2z"/>
<path d="M6260 1620 c-6 -11 -7 -20 -2 -20 10 0 32 21 32 32 0 16 -19 8 -30
-12z"/>
<path d="M6420 1624 c0 -8 5 -12 10 -9 6 3 10 10 10 16 0 5 -4 9 -10 9 -5 0
-10 -7 -10 -16z"/>
<path d="M4750 1599 c0 -14 5 -19 17 -17 26 5 29 38 4 38 -15 0 -21 -6 -21
-21z"/>
<path d="M5005 1584 c-19 -19 -7 -38 18 -28 18 6 24 44 8 44 -5 0 -17 -7 -26
-16z"/>
<path d="M5427 1579 c-16 -22 -14 -39 3 -39 5 0 14 9 21 21 16 31 -4 47 -24
18z"/>
<path d="M5615 1580 c-9 -10 -14 -24 -10 -30 8 -13 22 -5 35 20 14 26 -4 34
-25 10z"/>
<path d="M5802 1588 c-13 -13 -16 -38 -6 -38 8 0 33 32 34 43 0 11 -15 8 -28
-5z"/>
<path d="M5977 1579 c-3 -13 -1 -19 6 -16 15 5 22 37 9 37 -5 0 -12 -9 -15
-21z"/>
<path d="M6146 1584 c-11 -27 -7 -37 9 -24 16 14 20 40 6 40 -5 0 -12 -7 -15
-16z"/>
<path d="M6311 1586 c-7 -8 -8 -17 -3 -20 6 -3 13 1 16 10 9 23 2 28 -13 10z"/>
<path d="M6466 1585 c-3 -8 -1 -15 3 -15 5 0 11 7 15 15 3 8 1 15 -3 15 -5 0
-11 -7 -15 -15z"/>
<path d="M5226 1574 c-9 -24 -7 -34 8 -34 13 0 26 20 26 41 0 15 -27 10 -34
-7z"/>
<path d="M4837 1563 c-12 -12 -7 -43 7 -43 18 0 39 27 31 40 -7 11 -28 13 -38
3z"/>
<path d="M5486 1539 c-20 -29 -20 -39 -1 -39 19 0 40 39 27 52 -6 6 -15 2 -26
-13z"/>
<path d="M5668 1535 c-6 -14 -8 -28 -5 -31 10 -11 37 17 37 37 0 27 -18 23
-32 -6z"/>
<path d="M5860 1539 c0 -11 5 -17 10 -14 6 3 10 13 10 21 0 8 -4 14 -10 14 -5
0 -10 -9 -10 -21z"/>
<path d="M6030 1540 c-9 -16 -8 -20 5 -20 8 0 15 9 15 20 0 11 -2 20 -5 20 -2
0 -9 -9 -15 -20z"/>
<path d="M6196 1545 c-3 -9 0 -15 9 -15 8 0 15 7 15 15 0 8 -4 15 -9 15 -5 0
-11 -7 -15 -15z"/>
<path d="M6356 1544 c-4 -9 -4 -19 -1 -22 2 -3 7 3 11 12 4 9 4 19 1 22 -2 3
-7 -3 -11 -12z"/>
<path d="M6517 1553 c-4 -3 -7 -11 -7 -17 0 -6 5 -5 12 2 6 6 9 14 7 17 -3 3
-9 2 -12 -2z"/>
<path d="M5080 1531 c-7 -14 -7 -22 1 -27 13 -8 41 24 33 37 -9 15 -23 10 -34
-10z"/>
<path d="M5290 1531 c-13 -26 -13 -31 5 -31 16 0 38 34 28 44 -11 11 -22 6
-33 -13z"/>
<path d="M3150 1496 c0 -24 9 -64 19 -89 22 -50 33 -117 22 -132 -4 -5 -3 -34
2 -63 7 -44 13 -55 39 -68 31 -16 31 -16 24 8 -8 27 -27 115 -55 251 -11 55
-23 108 -26 118 -11 34 -25 20 -25 -25z"/>
<path d="M4925 1504 c-11 -11 -13 -20 -6 -27 13 -13 41 -2 41 17 0 23 -17 28
-35 10z"/>
<path d="M5917 1500 c-3 -11 -1 -20 4 -20 5 0 9 9 9 20 0 11 -2 20 -4 20 -2 0
-6 -9 -9 -20z"/>
<path d="M6407 1514 c-4 -4 -7 -14 -7 -23 0 -11 3 -12 11 -4 6 6 10 16 7 23
-2 6 -7 8 -11 4z"/>
<path d="M5360 1495 c-6 -8 -10 -22 -8 -31 3 -17 4 -17 21 0 18 18 23 46 8 46
-5 0 -14 -7 -21 -15z"/>
<path d="M5540 1489 c-14 -24 -9 -32 14 -23 17 7 23 44 6 44 -5 0 -14 -9 -20
-21z"/>
<path d="M5723 1495 c-3 -9 -3 -18 0 -21 9 -9 27 6 27 22 0 19 -19 18 -27 -1z"/>
<path d="M5157 1493 c-12 -11 -7 -33 7 -33 12 0 26 20 26 36 0 7 -26 5 -33 -3z"/>
<path d="M4750 1475 c-6 -8 -9 -18 -6 -24 10 -16 46 0 46 20 0 23 -23 25 -40
4z"/>
<path d="M4574 1459 c-8 -14 11 -33 25 -25 16 10 13 36 -3 36 -8 0 -18 -5 -22
-11z"/>
<path d="M5005 1454 c-10 -10 -13 -20 -7 -26 12 -12 42 1 42 17 0 22 -17 26
-35 9z"/>
<path d="M5421 1451 c-14 -24 -14 -31 -1 -31 14 0 32 38 21 45 -6 3 -15 -3
-20 -14z"/>
<path d="M5601 1451 c-6 -10 -7 -21 -4 -25 9 -8 33 14 33 30 0 20 -18 17 -29
-5z"/>
<path d="M6450 1459 c0 -5 5 -7 10 -4 6 3 10 8 10 11 0 2 -4 4 -10 4 -5 0 -10
-5 -10 -11z"/>
<path d="M5225 1439 c-4 -11 -4 -24 0 -27 9 -9 36 28 29 39 -9 15 -22 10 -29
-12z"/>
<path d="M4840 1425 c-10 -12 -10 -19 -2 -27 15 -15 48 14 38 31 -10 15 -21
14 -36 -4z"/>
<path d="M5662 1417 c-17 -20 -12 -40 6 -28 8 5 12 16 10 26 -3 17 -4 17 -16
2z"/>
<path d="M6336 1421 c-4 -7 -5 -15 -2 -18 9 -9 19 4 14 18 -4 11 -6 11 -12 0z"/>
<path d="M5080 1401 c-7 -14 -7 -22 1 -27 13 -8 41 24 33 37 -9 15 -23 10 -34
-10z"/>
<path d="M5292 1408 c-14 -14 -16 -38 -4 -38 12 0 32 23 32 37 0 16 -12 17
-28 1z"/>
<path d="M5473 1405 c-3 -9 -3 -18 0 -21 9 -9 27 6 27 22 0 19 -19 18 -27 -1z"/>
<path d="M4667 1404 c-9 -10 2 -24 19 -24 8 0 14 7 14 15 0 15 -21 21 -33 9z"/>
<path d="M4484 1389 c-7 -12 15 -31 28 -23 4 3 8 12 8 20 0 17 -26 19 -36 3z"/>
<path d="M4310 1375 c0 -8 7 -15 15 -15 8 0 15 7 15 15 0 8 -7 15 -15 15 -8 0
-15 -7 -15 -15z"/>
<path d="M4925 1374 c-11 -11 -13 -20 -6 -27 13 -13 41 -2 41 17 0 23 -17 28
-35 10z"/>
<path d="M5716 1374 c-11 -27 -7 -37 9 -24 16 14 20 40 6 40 -5 0 -12 -7 -15
-16z"/>
<path d="M6226 1375 c-3 -8 -1 -15 3 -15 5 0 11 7 15 15 3 8 1 15 -3 15 -5 0
-11 -7 -15 -15z"/>
<path d="M6387 1383 c-4 -3 -7 -11 -7 -17 0 -6 5 -5 12 2 6 6 9 14 7 17 -3 3
-9 2 -12 -2z"/>
<path d="M5350 1360 c-15 -28 -4 -39 17 -17 13 12 14 20 6 28 -8 8 -14 5 -23
-11z"/>
<path d="M5533 1365 c-3 -9 -3 -18 0 -21 9 -9 27 6 27 22 0 19 -19 18 -27 -1z"/>
<path d="M5157 1363 c-12 -11 -7 -33 7 -33 12 0 26 20 26 36 0 7 -26 5 -33 -3z"/>
<path d="M4763 1353 c-18 -6 -16 -33 1 -33 19 0 31 19 20 30 -5 4 -15 5 -21 3z"/>
<path d="M6117 1344 c-4 -4 -7 -14 -7 -23 0 -11 3 -12 11 -4 6 6 10 16 7 23
-2 6 -7 8 -11 4z"/>
<path d="M6277 1344 c-4 -4 -7 -14 -7 -23 0 -11 3 -12 11 -4 6 6 10 16 7 23
-2 6 -7 8 -11 4z"/>
<path d="M4584 1329 c-3 -6 -2 -15 2 -19 12 -12 38 5 30 19 -9 14 -23 14 -32
0z"/>
<path d="M5005 1324 c-10 -10 -13 -20 -7 -26 12 -12 42 1 42 17 0 22 -17 26
-35 9z"/>
<path d="M5410 1319 c-7 -11 -9 -24 -5 -27 7 -7 35 25 35 40 0 16 -19 8 -30
-13z"/>
<path d="M5590 1325 c-7 -9 -10 -18 -7 -22 8 -7 37 15 37 28 0 14 -16 11 -30
-6z"/>
<path d="M4230 1321 c0 -5 5 -13 10 -16 6 -3 10 -2 10 4 0 5 -4 13 -10 16 -5
3 -10 2 -10 -4z"/>
<path d="M4406 1323 c-11 -11 -6 -23 9 -23 8 0 15 4 15 9 0 13 -16 22 -24 14z"/>
<path d="M5227 1323 c-4 -3 -7 -15 -7 -26 0 -16 3 -17 15 -7 8 7 15 19 15 26
0 15 -12 19 -23 7z"/>
<path d="M4840 1285 c0 -10 7 -15 18 -13 21 4 19 22 -2 26 -10 2 -16 -3 -16
-13z"/>
<path d="M5650 1285 c-7 -9 -11 -18 -8 -20 3 -3 11 1 18 10 7 9 11 18 8 20 -3
3 -11 -1 -18 -10z"/>
<path d="M5995 1289 c-4 -6 -5 -13 -2 -16 7 -7 27 6 27 18 0 12 -17 12 -25 -2z"/>
<path d="M6160 1284 c0 -8 5 -12 10 -9 6 3 10 10 10 16 0 5 -4 9 -10 9 -5 0
-10 -7 -10 -16z"/>
<path d="M6320 1289 c0 -5 5 -7 10 -4 6 3 10 8 10 11 0 2 -4 4 -10 4 -5 0 -10
-5 -10 -11z"/>
<path d="M5080 1275 c-9 -11 -10 -19 -2 -27 14 -14 32 -1 32 23 0 23 -13 25
-30 4z"/>
<path d="M5286 1274 c-11 -27 -7 -37 9 -24 16 14 20 40 6 40 -5 0 -12 -7 -15
-16z"/>
<path d="M5470 1275 c0 -8 5 -15 10 -15 6 0 10 7 10 15 0 8 -4 15 -10 15 -5 0
-10 -7 -10 -15z"/>
<path d="M4503 1263 c-20 -7 -15 -23 7 -23 11 0 20 4 20 9 0 13 -12 19 -27 14z"/>
<path d="M4320 1245 c0 -9 5 -15 11 -13 6 2 11 8 11 13 0 5 -5 11 -11 13 -6 2
-11 -4 -11 -13z"/>
<path d="M5886 1244 c-4 -9 -4 -19 -1 -22 2 -3 7 3 11 12 4 9 4 19 1 22 -2 3
-7 -3 -11 -12z"/>
<path d="M6046 1244 c-4 -10 -1 -14 6 -12 15 5 23 28 10 28 -5 0 -13 -7 -16
-16z"/>
<path d="M6210 1245 c0 -8 2 -15 4 -15 2 0 6 7 10 15 3 8 1 15 -4 15 -6 0 -10
-7 -10 -15z"/>
<path d="M4923 1235 c-3 -9 -3 -18 -1 -21 9 -9 38 8 38 22 0 19 -29 18 -37 -1z"/>
<path d="M5162 1238 c-15 -15 -16 -38 -2 -38 12 0 23 25 18 40 -2 7 -7 7 -16
-2z"/>
<path d="M5345 1229 c-4 -6 -5 -13 -2 -16 7 -7 27 6 27 18 0 12 -17 12 -25 -2z"/>
<path d="M4757 1213 c-13 -12 -7 -23 12 -23 10 0 21 7 25 15 5 15 -24 22 -37
8z"/>
<path d="M5937 1214 c-4 -4 -7 -14 -7 -23 0 -11 3 -12 11 -4 6 6 10 16 7 23
-2 6 -7 8 -11 4z"/>
<path d="M6096 1205 c-3 -8 -1 -15 3 -15 5 0 11 7 15 15 3 8 1 15 -3 15 -5 0
-11 -7 -15 -15z"/>
<path d="M2672 1180 c0 -14 2 -19 5 -12 2 6 2 18 0 25 -3 6 -5 1 -5 -13z"/>
<path d="M4075 1190 c3 -5 8 -10 11 -10 2 0 4 5 4 10 0 6 -5 10 -11 10 -5 0
-7 -4 -4 -10z"/>
<path d="M4237 1194 c-8 -8 1 -24 14 -24 5 0 9 7 9 15 0 15 -12 20 -23 9z"/>
<path d="M4416 1193 c-11 -11 -6 -23 9 -23 8 0 15 4 15 9 0 13 -16 22 -24 14z"/>
<path d="M5003 1185 c-3 -9 -3 -19 1 -22 7 -7 36 16 36 28 0 15 -30 10 -37 -6z"/>
<path d="M5220 1180 c-12 -23 2 -27 19 -6 8 9 8 16 2 20 -6 4 -15 -3 -21 -14z"/>
<path d="M5407 1193 c-10 -9 -9 -23 2 -23 5 0 11 7 15 15 5 15 -5 20 -17 8z"/>
<path d="M5631 1184 c0 -11 3 -14 6 -6 3 7 2 16 -1 19 -3 4 -6 -2 -5 -13z"/>
<path d="M5987 1174 c-4 -4 -7 -14 -7 -23 0 -11 3 -12 11 -4 6 6 10 16 7 23
-2 6 -7 8 -11 4z"/>
<path d="M4845 1159 c-10 -15 1 -23 20 -15 9 3 13 10 10 16 -8 13 -22 13 -30
-1z"/>
<path d="M5287 1154 c-4 -4 -7 -14 -7 -23 0 -11 3 -12 11 -4 6 6 10 16 7 23
-2 6 -7 8 -11 4z"/>
<path d="M5462 1140 c0 -14 2 -19 5 -12 2 6 2 18 0 25 -3 6 -5 1 -5 -13z"/>
<path d="M5815 1150 c-3 -5 -1 -10 4 -10 6 0 11 5 11 10 0 6 -2 10 -4 10 -3 0
-8 -4 -11 -10z"/>
<path d="M5085 1139 c-4 -6 -5 -13 -2 -16 7 -7 27 6 27 18 0 12 -17 12 -25 -2z"/>
<path d="M5651 1085 c1 -118 23 -297 35 -285 5 5 30 16 55 24 24 8 37 14 28
15 -27 2 -59 86 -71 183 -8 59 -18 98 -29 112 -18 21 -18 20 -18 -49z"/>
<path d="M4150 1118 c0 -4 7 -8 15 -8 8 0 15 4 15 8 0 5 -7 9 -15 9 -8 0 -15
-4 -15 -9z"/>
<path d="M4330 1120 c0 -5 7 -10 16 -10 8 0 12 5 9 10 -3 6 -10 10 -16 10 -5
0 -9 -4 -9 -10z"/>
<path d="M5865 1119 c-4 -6 -5 -13 -2 -16 7 -7 27 6 27 18 0 12 -17 12 -25 -2z"/>
<path d="M3240 1101 c0 -11 5 -23 10 -26 6 -3 10 3 10 14 0 11 -4 23 -10 26
-5 3 -10 -3 -10 -14z"/>
<path d="M4929 1104 c-12 -14 -11 -16 5 -13 11 2 21 10 24 17 5 17 -13 15 -29
-4z"/>
<path d="M5347 1114 c-4 -4 -7 -14 -7 -23 0 -11 3 -12 11 -4 6 6 10 16 7 23
-2 6 -7 8 -11 4z"/>
<path d="M5155 1099 c-4 -6 -5 -13 -2 -16 7 -7 27 6 27 18 0 12 -17 12 -25 -2z"/>
<path d="M4770 1075 c0 -8 5 -15 10 -15 6 0 10 7 10 15 0 8 -4 15 -10 15 -5 0
-10 -7 -10 -15z"/>
<path d="M5955 1066 c-126 -48 -124 -47 -107 -72 18 -28 168 -46 202 -24 11 7
8 10 -15 10 -17 0 -36 5 -43 12 -16 16 -15 45 2 51 10 4 32 50 23 46 -1 0 -29
-10 -62 -23z"/>
<path d="M5406 1073 c-9 -9 -7 -33 3 -33 12 0 22 28 12 34 -5 3 -11 3 -15 -1z"/>
<path d="M4246 1061 c-4 -5 -2 -12 3 -15 5 -4 12 -2 15 3 4 5 2 12 -3 15 -5 4
-12 2 -15 -3z"/>
<path d="M5005 1059 c-4 -6 -5 -13 -2 -16 7 -7 27 6 27 18 0 12 -17 12 -25 -2z"/>
<path d="M5227 1063 c-4 -3 -7 -11 -7 -17 0 -6 5 -5 12 2 6 6 9 14 7 17 -3 3
-9 2 -12 -2z"/>
<path d="M3260 1026 c0 -8 3 -22 6 -31 5 -13 8 -14 15 -3 14 21 10 48 -6 48
-8 0 -15 -6 -15 -14z"/>
<path d="M4845 1031 c-3 -5 -1 -12 5 -16 12 -7 30 2 30 16 0 12 -27 12 -35 0z"/>
<path d="M5464 1028 c-8 -13 17 -40 32 -34 7 3 15 0 18 -7 2 -7 5 2 5 19 1 27
-2 32 -24 32 -14 0 -28 -5 -31 -10z"/>
<path d="M5084 1015 c-9 -22 1 -29 15 -11 8 10 9 16 1 21 -5 3 -13 -1 -16 -10z"/>
<path d="M5287 1023 c-4 -3 -7 -11 -7 -17 0 -6 5 -5 12 2 6 6 9 14 7 17 -3 3
-9 2 -12 -2z"/>
<path d="M4165 1000 c-3 -5 1 -10 10 -10 9 0 13 5 10 10 -3 6 -8 10 -10 10 -2
0 -7 -4 -10 -10z"/>
<path d="M3290 959 c0 -32 6 -51 18 -62 23 -21 58 -22 66 -1 8 21 -2 37 -20
30 -14 -5 -27 9 -31 33 -1 8 -9 21 -17 30 -15 14 -16 11 -16 -30z"/>
<path d="M4935 979 c-4 -6 -5 -13 -2 -16 7 -7 27 6 27 18 0 12 -17 12 -25 -2z"/>
<path d="M5150 964 c0 -8 5 -12 10 -9 6 3 10 10 10 16 0 5 -4 9 -10 9 -5 0
-10 -7 -10 -16z"/>
<path d="M4765 950 c-3 -5 1 -10 9 -10 8 0 18 5 21 10 3 6 -1 10 -9 10 -8 0
-18 -4 -21 -10z"/>
<path d="M5005 931 c-6 -11 9 -23 19 -14 9 9 7 23 -3 23 -6 0 -12 -4 -16 -9z"/>
<path d="M5215 929 c-4 -6 -5 -13 -2 -16 7 -7 27 6 27 18 0 12 -17 12 -25 -2z"/>
<path d="M4850 900 c0 -5 7 -10 15 -10 8 0 15 5 15 10 0 6 -7 10 -15 10 -8 0
-15 -4 -15 -10z"/>
<path d="M5086 891 c-4 -7 -5 -15 -2 -18 9 -9 19 4 14 18 -4 11 -6 11 -12 0z"/>
<path d="M5280 884 c0 -8 5 -12 10 -9 6 3 10 10 10 16 0 5 -4 9 -10 9 -5 0
-10 -7 -10 -16z"/>
<path d="M5480 876 c0 -13 -5 -37 -11 -53 -6 -15 -15 -44 -19 -64 l-7 -37 61
5 c34 3 72 11 86 19 l25 13 -33 -1 c-43 -1 -49 6 -65 77 -14 61 -37 87 -37 41z"/>
<path d="M4695 880 c-3 -5 -1 -10 4 -10 6 0 11 5 11 10 0 6 -2 10 -4 10 -3 0
-8 -4 -11 -10z"/>
<path d="M4355 860 c3 -5 8 -10 11 -10 2 0 4 5 4 10 0 6 -5 10 -11 10 -5 0 -7
-4 -4 -10z"/>
<path d="M4934 856 c-8 -22 3 -33 18 -18 9 9 9 15 0 24 -9 9 -13 7 -18 -6z"/>
<path d="M5156 851 c-4 -7 -5 -15 -2 -18 9 -9 19 4 14 18 -4 11 -6 11 -12 0z"/>
<path d="M4775 820 c4 -6 11 -8 16 -5 14 9 11 15 -7 15 -8 0 -12 -5 -9 -10z"/>
<path d="M5010 805 c-10 -12 -10 -15 4 -15 9 0 16 7 16 15 0 8 -2 15 -4 15 -2
0 -9 -7 -16 -15z"/>
<path d="M5250 790 c-25 -10 -80 -29 -122 -41 -119 -34 -70 -57 52 -24 53 14
55 14 80 -9 36 -34 64 -46 104 -46 24 0 38 6 44 18 18 37 9 47 -45 50 -48 3
-53 5 -59 30 -3 15 -6 30 -7 34 -1 4 -22 -2 -47 -12z"/>
<path d="M5374 775 c13 -10 24 -11 37 -4 28 14 23 19 -18 19 -35 -1 -37 -2
-19 -15z"/>
<path d="M4855 770 c-3 -5 -2 -10 4 -10 5 0 13 5 16 10 3 6 2 10 -4 10 -5 0
-13 -4 -16 -10z"/>
<path d="M3621 748 c15 -27 13 -266 -2 -395 -11 -90 -6 -183 10 -183 5 0 11
66 15 147 9 197 21 341 29 349 3 4 4 -16 0 -45 -6 -50 -5 -51 20 -51 14 0 33
-7 42 -16 12 -12 19 -13 29 -5 11 9 15 6 20 -15 4 -14 2 -32 -4 -39 -8 -9 -8
-15 0 -20 5 -3 11 -16 11 -28 2 -38 16 32 18 86 1 32 6 49 16 53 8 4 12 10 9
15 -11 18 18 39 52 39 27 0 34 -4 34 -20 0 -13 7 -20 19 -20 22 0 29 14 27 54
-1 24 -7 31 -31 38 -16 5 -38 6 -48 4 -9 -2 -15 -1 -13 3 2 3 -41 17 -96 31
-54 13 -102 28 -104 32 -3 4 -19 8 -35 8 -27 0 -29 -2 -18 -22z"/>
<path d="M4020 659 c0 -15 5 -19 18 -15 13 4 22 -1 31 -16 16 -31 55 -48 124
-55 31 -3 57 -9 57 -12 0 -11 85 -7 97 5 7 6 29 15 50 19 21 4 41 11 44 17 4
6 28 14 55 19 27 5 54 15 61 22 10 9 -14 12 -115 12 -193 0 -402 9 -402 18 0
4 -4 7 -10 7 -5 0 -10 -9 -10 -21z"/>
<path d="M3697 223 c-16 -15 -6 -43 14 -43 15 0 19 4 15 16 -3 9 -6 20 -6 25
0 11 -14 12 -23 2z"/>
<path d="M3740 205 c0 -26 24 -35 32 -12 7 18 -2 37 -18 37 -8 0 -14 -10 -14
-25z"/>
<path d="M3610 15 c0 -8 5 -15 10 -15 6 0 10 7 10 15 0 8 -4 15 -10 15 -5 0
-10 -7 -10 -15z"/>
</g>
</svg>
